<?xml version="1.0" encoding="UTF-8"?>
<svg width="2916px" height="732px" viewBox="0 0 2916 732" version="1.1" xmlns="http://www.w3.org/2000/svg" xmlns:xlink="http://www.w3.org/1999/xlink">
        <g id="F01" transform="translate(2194.000000, 629.000000)" fill="currentColor" class="kondygnacja" fill-rule="nonzero">
            <path d="M1.6,101.8 L0.6,1.6 C0.6,1.6 179.8,7.7 267.6,1.3 C267.6,1.3 409,6.2 488,0 L526.6,3.2 L569.9,8.4 L721.4,15.1 L721.4,102 L567.9,100.6 L1.6,101.8 Z" id="Path"></path>
        </g>
        <g id="F02" transform="translate(2194.000000, 525.000000)" fill="currentColor" class="kondygnacja"  fill-rule="nonzero">
            <path d="M1.6,106.1 L0.7,7.7 C0.7,7.7 85.1,18.7 267.9,4.6 C267.9,4.6 354.2,12 486.6,0.4 C486.1,0.4 526.9,9 526.9,9 L568.9,13 L720.4,22.3 L720.4,119 L568.9,112.3 L526.6,107.2 L487,104.7 C487,104.7 358.9,109.5 267.9,106.1 C109.7,110.4 1.6,106.1 1.6,106.1 Z" id="Path"></path>
        </g>
        <g id="F03" transform="translate(2194.000000, 425.000000)" fill="currentColor" class="kondygnacja" fill-rule="nonzero">
            <path d="M1.6,108.1 L0.7,14.7 C0.7,14.7 134.1,24.6 267.9,6.6 C267.9,6.6 388.4,16.9 486.6,0.4 C486.1,0.4 526.9,9 526.9,9 L568.9,15 L720.4,24.3 L720.4,123 L568.9,113.3 L526.6,109.2 L487,100.7 C487,100.7 377.7,112.2 267.9,104.1 C94.2,118.7 1.6,108.1 1.6,108.1 Z" id="Path"></path>
        </g>
        <g id="F04" transform="translate(2194.000000, 324.000000)" fill="currentColor" class="kondygnacja" fill-rule="nonzero">
            <path d="M1.6,115.1 L0.7,19.7 C0.7,19.7 108.1,34.8 267.9,9.6 C267.9,9.6 381.3,20.8 486.6,0.4 C486.1,0.4 526.9,13 526.9,13 L568.9,20 L720.4,29.3 L720.4,126 L568.9,116.3 L526.6,110.2 L487,102.7 C487,102.7 377.7,115.2 267.9,107.1 C118.3,128.1 1.6,115.1 1.6,115.1 Z" id="Path"></path>
        </g>
        <g id="F05" transform="translate(2194.000000, 224.000000)" fill="currentColor" class="kondygnacja" fill-rule="nonzero">
            <path d="M1.6,120.1 L0.7,21.7 C0.7,21.7 97.9,39.1 267.9,10.6 C267.9,10.6 381.3,20.8 486.6,0.4 C486.1,0.4 526.9,17 526.9,17 L568.9,25 L720.4,51.3 L720.4,130 L568.9,120.3 L526.6,113.2 L487,99.7 C487,99.7 401.6,122.3 267.9,108.1 C113.9,135.9 1.6,120.1 1.6,120.1 Z" id="Path"></path>
        </g>
        <g id="F06" transform="translate(2194.000000, 119.000000)" fill="currentColor" class="kondygnacja" fill-rule="nonzero">
            <path d="M1.6,127.6 L0.7,30.2 C0.7,30.2 99.3,51.6 267.9,14.1 C267.9,14.1 357.8,34 486.6,0.9 C486.1,0.9 526.9,20.5 526.9,20.5 L568.9,42.5 L720.4,96.8 L720.4,157.4 L568.9,130.7 L526.6,122.6 L487,104.1 C487,104.1 401.6,129.7 267.9,115.5 C113.9,143.3 1.6,127.6 1.6,127.6 Z" id="Path"></path>
        </g>
        <g id="E01" transform="translate(1946.000000, 646.000000)" fill="currentColor" class="kondygnacja" fill-rule="nonzero">
            <path d="M0.3,83.8 L1,5 C1,5 137.8,5 192.7,0.4 L249.6,1.9 L249.6,84.7 L0.3,83.8 Z" id="Path"></path>
        </g>
        <g id="E02" transform="translate(1946.000000, 570.000000)" fill="currentColor" class="kondygnacja" fill-rule="nonzero">
            <path d="M1,81 C1,81 121.7,80.1 194.7,77.7 C194.7,77.5 248.6,78 248.6,78 L248.5,2.4 L193.4,0.8 C193.4,0.8 103.5,11.2 11.6,10.5 C11.6,10.5 0.3,10.9 0.3,10.9 L1,81 Z" id="Path"></path>
        </g>
        <g id="E03" transform="translate(1946.000000, 495.000000)" fill="currentColor" class="kondygnacja" fill-rule="nonzero">
            <path d="M1,85.6 C1,85.6 92.5,85.6 194.7,77.3 C194.7,77.1 248.5,77.3 248.5,77.3 L248.5,1.9 L193.4,0.3 C193.4,0.3 107.1,17.6 11.6,16 C11.6,16 0.3,16.4 0.3,16.4 L1,85.6 Z" id="Path"></path>
        </g>
        <g id="E04" transform="translate(1946.000000, 419.000000)" fill="currentColor" class="kondygnacja" fill-rule="nonzero">
            <path d="M1,92.6 C1,92.6 116.8,92.6 194.7,76.3 C194.7,76.1 248.5,76.3 248.5,76.3 L248.5,4 L193.4,0.4 C193.4,0.4 107.1,23.7 11.6,22.1 C11.6,22.1 0.3,22.5 0.3,22.5 L1,92.6 Z" id="Path"></path>
        </g>
        <g id="E05" transform="translate(1946.000000, 342.000000)" fill="currentColor" class="kondygnacja" fill-rule="nonzero">
            <path d="M1,99.8 C1,99.8 107.1,101.2 194.7,76.5 C194.7,76.3 248.5,80.5 248.5,80.5 L248.5,4.1 L193.4,0.5 C193.4,0.5 116.8,31.4 11.6,29.2 C11.6,29.2 0.3,29.6 0.3,29.6 L1,99.8 Z" id="Path"></path>
        </g>
        <g id="E06" transform="translate(1946.000000, 259.000000)" fill="currentColor" class="kondygnacja" fill-rule="nonzero">
            <path d="M1,113 C1,113 112.1,116.8 194.7,82.7 C194.7,82.5 248.5,86.7 248.5,86.7 L248.5,8.3 L193.4,0.7 C193.4,0.7 160.5,28.5 11.6,40.3 C10.1,40.4 11.9,55.3 10.4,55.3 C10.4,55.3 0.3,57 0.3,57 L1,113 Z" id="Path"></path>
        </g>
        <g id="D01" transform="translate(1545.000000, 657.000000)" fill="currentColor" class="kondygnacja" fill-rule="nonzero">
            <path d="M0.5,72.2 L0.5,7.8 L55.7,1.4 L68.1,0.9 L220.4,2.2 C220.4,2.2 308.7,4.9 346.4,2.5 C346.4,2.7 346.4,72.5 346.4,72.5 L0.5,72.2 Z" id="Path"></path>
        </g>
        <g id="D02" transform="translate(1545.000000, 583.000000)" fill="currentColor" class="kondygnacja" fill-rule="nonzero">
            <path d="M0.5,81.8 L56.7,75.3 L68.1,74.8 L221.3,75.8 C221.3,75.8 312,79 346.3,76.3 L346.3,6.7 C346.3,6.7 278.1,10.5 220.3,4.2 C220.6,4.1 97.6,3.7 67,-1.13686838e-13 C67.2,0.1 2.27373675e-13,13.6 2.27373675e-13,13.6 L0.5,81.8 Z" id="Path"></path>
        </g>
        <g id="D03" transform="translate(1545.000000, 509.000000)" fill="currentColor" class="kondygnacja" fill-rule="nonzero">
            <path d="M0.1,87.6 L0.1,20.6 C0.1,20.6 36,14.1 55.8,9.2 C58.1,8.6 54.6,4.5 56.1,3.9 C60.6,2.1 68.3,0.3 68.2,0.3 C105.8,5.1 186.7,7.3 221.7,7.3 C290,15.5 346.3,10.7 346.3,10.7 L346.3,80.3 C285.5,84.8 221.3,78.3 221.3,78.3 C221.3,78.3 95.1,76.5 68,74.1 C68.2,74.1 54.7,77.1 54.7,77.1 L0.1,87.6 Z" id="Path"></path>
        </g>
        <g id="D04" transform="translate(1545.000000, 437.000000)" fill="currentColor" class="kondygnacja" fill-rule="nonzero">
            <path d="M0.1,92.6 L0.1,24.2 C0.1,24.2 35.8,12.8 55.6,7.9 C57.9,7.3 54.6,4.2 56.1,3.6 C60.6,1.8 68.3,1.13686838e-13 68.2,1.13686838e-13 C126.7,9.4 186.7,7 221.7,7 C300,20.5 346.3,14.9 346.3,14.9 L346.3,84 C285.5,88.5 221.3,77.9 221.3,77.9 C221.3,77.9 95.1,76.1 68,73.7 C68.2,73.7 54.7,76.7 54.7,76.7 L54.7,82.7 L0.1,92.6 Z" id="Path"></path>
        </g>
        <g id="D05" transform="translate(1545.000000, 365.000000)" fill="currentColor" class="kondygnacja" fill-rule="nonzero">
            <path d="M346.3,87.5 C285.5,92 221.7,78.9 221.7,78.9 C221.7,78.9 114.7,82 68.1,71.1 C68.3,71.1 54.8,74.1 54.8,74.1 L54.8,80.1 L0.9,96 L0.2,30.4 C0.2,30.4 36.2,14.7 56,9.8 C58.3,9.2 55.3,6.4 56.8,5.8 L68.3,0.1 C68.3,0.1 142.1,12.1 221.4,7.1 C221.4,7.1 273.7,21.1 346.4,17 L346.4,87.5 L346.3,87.5 Z" id="Path"></path>
        </g>
        <g id="D06" transform="translate(1546.000000, 279.000000)" fill="currentColor" class="kondygnacja" fill-rule="nonzero">
            <path d="M67.2,0.2 C67.2,0.2 141.1,14.2 220.5,9.2 C220.5,9.2 239.5,23.5 345.3,22.8 L345.3,102.5 C284.5,107 220.7,93.9 220.7,93.9 C220.7,93.9 113.7,97 67.1,86.1 C67.3,86.1 53.8,92.8 53.8,92.8 L53.8,96.6 L4.54747351e-13,116.1 L0.6,33.3" id="Path"></path>
        </g>
        <g id="C06" transform="translate(836.000000, 125.000000)" fill="currentColor" class="kondygnacja" fill-rule="nonzero">
            <path d="M0.7,168.8 L1.2,258 L228.2,156.2 L306.6,115.6 C306.6,115.6 387.2,157.7 554.7,147.4 C554.7,147.4 598.6,172.9 708.9,164.2 L709.4,60.5 C709.4,60.5 609.8,72.2 556.2,41.1 C556.2,41.1 371.9,48.2 307,0.2 L156.4,88 L86.1,121.7 L61.2,139.6 L0.7,168.8 Z" id="Path"></path>
        </g>
        <g id="C05" transform="translate(836.000000, 240.000000)" fill="currentColor" class="kondygnacja" fill-rule="nonzero">
            <path d="M1.2,143 L228.2,41.2 L306.6,0.6 C306.6,0.6 393.5,45.2 554.7,32.4 C554.7,32.4 594.2,57.1 708.9,49.2 L708.9,136.7 C708.9,136.7 602.7,144.2 555.6,124.5 C555.6,124.5 415.5,138 306.6,98.8 L228.2,129.1 L228.2,133.4 L0.7,210.8 L1.2,143 Z" id="Path"></path>
        </g>
        <g id="C04" transform="translate(836.000000, 338.000000)" fill="currentColor" class="kondygnacja" fill-rule="nonzero">
            <path d="M708.9,38.8 C708.9,38.8 600.5,47.2 555.6,26.6 C555.6,26.6 405.3,39.2 306.6,0.9 L228.2,31.2 L228.2,35.5 L0.7,112.9 L0.7,188 L228.2,126.8 L228.2,121.9 L306.5,99.8 C306.5,99.8 386.3,128.3 555.5,117.9 C555.5,117.9 587.3,133.3 709.4,126.9 L708.9,38.8 Z" id="Path"></path>
        </g>
        <g id="C03" transform="translate(836.000000, 437.000000)" fill="currentColor" class="kondygnacja" fill-rule="nonzero">
            <path d="M0.7,87 L228.2,27.8 L228.2,22.9 L306.5,0.8 C306.5,0.8 399.6,30.6 555.5,18.9 C555.5,18.9 590,34.5 709.4,27.9 L709.4,116 C709.4,116 604.5,123.7 554.9,110 C554.9,110 386.6,116.5 306.5,99.3 L228.1,111.9 L228.1,117.4 L0.6,154.4 L0.6,87 L0.7,87 Z" id="Path"></path>
        </g>
        <g id="C02" transform="translate(836.000000, 536.000000)" fill="currentColor" class="kondygnacja" fill-rule="nonzero">
            <path d="M0.7,55.4 L228.2,18.4 L228.2,12.9 L306.6,0.3 C306.6,0.3 402.5,17.7 555,11 C555,11 602.9,24.8 709.5,17 L709.5,105.7 C709.5,105.7 619.1,111.9 555.6,103.5 C555.6,103.5 424.4,111.7 306.6,96.8 L228.3,102.3 L228.3,107.9 L0.8,124.5 L0.8,55.4 L0.7,55.4 Z" id="Path"></path>
        </g>
        <g id="C01" transform="translate(836.000000, 632.000000)" fill="currentColor" class="kondygnacja" fill-rule="nonzero">
            <path d="M0.7,28.6 L228.2,12 L228.2,6.4 L306.5,0.9 C306.5,0.9 422.2,16 555.5,7.6 C555.5,7.6 621,16.3 709.4,9.8 L709.4,97.3 L0.6,97.3 L0.7,28.6 Z" id="Path"></path>
        </g>
        <g id="B01" transform="translate(675.000000, 647.000000)" fill="currentColor" class="kondygnacja" fill-rule="nonzero">
            <path d="M0,0.7 L112.3,0.9 L112.3,5.9 C112.3,5.9 112.8,7.4 132.6,8.3 C132.6,8.6 138.6,8.3 138.6,8.3 L138.6,80 L132.6,80 L132.6,82.2 L112.3,82.2 L110.3,81.6 L0,81.6 L0,0.7" id="Path"></path>
        </g>
        <g id="B02" transform="translate(675.000000, 566.000000)" fill="currentColor" class="kondygnacja" fill-rule="nonzero">
            <path d="M0,11.4 L112.3,12.9 L112.3,23.4 C112.3,23.4 112.8,24.4 132.6,25.3 C132.6,25.6 138.6,25.3 138.6,25.3 L138.6,90.4 L132.6,90.4 L132.6,89.4 L112.3,88 L112,82.4 L0,81.8 L0,0.9" id="Path"></path>
        </g>
        <g id="B03" transform="translate(675.000000, 497.000000)" fill="currentColor" class="kondygnacja" fill-rule="nonzero">
            <path d="M0,10.9 L112.3,12.4 L112.3,22.9 C112.3,22.9 112.8,23.9 132.6,24.8 C132.6,25.1 138.6,24.8 138.6,24.8 L138.6,95.6 L132.6,95.6 L132.6,94.6 L112.3,93.2 L112,82 L0,81.4 L0,0.5" id="Path"></path>
        </g>
        <g id="B04" transform="translate(675.000000, 428.000000)" fill="currentColor" class="kondygnacja" fill-rule="nonzero">
            <path d="M0,10.4 L112.3,11.9 L112.3,22.4 C112.3,22.4 112.8,23.4 132.6,24.3 C132.6,24.6 138.6,24.3 138.6,24.3 L138.6,95.1 L132.6,95.1 L132.6,94.1 L112.3,92.7 L112,81.5 L0,80.9 L0,-1.13686838e-13" id="Path"></path>
        </g>
        <g id="B05" transform="translate(675.000000, 359.000000)" fill="currentColor" class="kondygnacja" fill-rule="nonzero">
            <path d="M0,11 L112.3,12.5 L112.3,23 C112.3,23 112.8,24 132.6,24.9 C132.6,25.2 138.6,24.9 138.6,24.9 L138.6,95.7 L132.6,95.7 L132.6,94.7 L112.3,93.3 L112,82 L0,81.4 L0,0.5" id="Path"></path>
        </g>
        <g id="B06" transform="translate(675.000000, 278.000000)" fill="currentColor" class="kondygnacja" fill-rule="nonzero">
            <path d="M0,0.6 L76.9,7.8 L78.9,12.2 L112.3,15.3 L112.3,24.7 L112.3,35.2 C112.3,35.2 119.5,39.2 132.3,40.8 C132.3,41 130.9,55.3 132.6,62.4 C133.1,64.5 138.6,63.7 138.6,63.7 L138.6,107.9 L132.6,107.9 L132.6,106.9 L112.3,105.5 L112,94.3 L0,93.7 L0,12.8" id="Path"></path>
        </g>
        <g id="A01" transform="translate(2.000000, 617.000000)" fill="currentColor" class="kondygnacja" fill-rule="nonzero">
            <path d="M0,111.6 L673,113.6 L672,19 C672,19 633.4,21.7 605.4,12.7 C605.4,12.7 464.1,2.7 449.9,0.7 L222.4,0.7 L0,9.8 L0,111.6 Z" id="Path"></path>
        </g>
        <g id="A02" transform="translate(2.000000, 518.000000)" fill="currentColor" class="kondygnacja" fill-rule="nonzero">
            <path d="M0,108.8 L224.4,99.6 L451,97.6 L520.2,106 L606.4,111 L607.3,114.2 L636.2,117.4 L673.1,119 L671.9,37.6 C671.9,37.6 607.3,34.5 605.3,22.9 C605.3,22.9 541.7,17.3 449.8,0.9 L222.3,0.9 L0,10.1 L0,108.8 Z" id="Path"></path>
        </g>
        <g id="A03" transform="translate(2.000000, 420.000000)" fill="currentColor" class="kondygnacja" fill-rule="nonzero">
            <path d="M0,108.2 L224.4,99 L451,97 L533.7,113 L606.4,120.4 L607.3,126.2 L634.9,132.6 L671.9,135.7 L673.1,57.2 C673.1,57.2 631.6,51.4 608.6,41.2 C604.1,39.2 606.7,33.4 606.6,32.9 C606.6,32.9 547.6,27.6 449.8,0.4 L222.3,0.4 L0,9.4 L0,108.2 Z" id="Path"></path>
        </g>
        <g id="A04" transform="translate(2.000000, 317.000000)" fill="currentColor" class="kondygnacja" fill-rule="nonzero">
            <path d="M0,112.2 L224.4,103 L451,101 L533.7,124 L606.7,135.7 L607.3,144 L630.8,152.1 L673.2,160 L672,79.4 C672,79.4 632.5,73.4 610.5,59.3 C606.4,56.7 605.5,48.8 605.4,48.3 C605.4,48.3 541.4,39.3 447.4,0.2 L223.5,1.1 L222.4,7 L0,13.5 L0,112.2 Z" id="Path"></path>
        </g>
        <g id="A05" transform="translate(2.000000, 219.000000)" fill="currentColor" class="kondygnacja" fill-rule="nonzero">
            <path d="M0,111.4 L223.2,105.2 L223.5,99.2 L451.3,98.4 L502.5,120.3 L561.4,137.4 L607.4,145.7 L607.4,155.8 L624.9,166.3 L673.5,179.3 L672.3,99 C672.3,99 629.5,94.7 608.2,72.2 C604.8,68.6 606.3,59.4 606.2,58.9 C606.2,58.9 551.8,49.7 451.8,2 L223.4,0.3 L222.3,6.2 L0,12.7 L0,111.4 Z" id="Path"></path>
        </g>
        <g id="A06" transform="translate(2.000000, 101.000000)" fill="currentColor" class="kondygnacja" fill-rule="nonzero">
            <path d="M224.4,0.5 L0,13.4 L0,131.2 L223.2,125 L223.5,119 L451.9,120.1 L513.8,147.3 L578.7,169.5 L607.4,176.9 L606.9,191.1 L628.8,205.8 L673,217.6 L672,125.6 C672,125.6 620.5,117.5 612.1,91.8 C612.1,91.8 607.4,86 606.3,73.7 C606.3,73.7 542,62.9 451.8,2.9" id="Path"></path>
        </g>
        <g id="mapa" fill="#000000" fill-rule="nonzero">
            <g id="Bud_x5F_F" transform="translate(2193.000000, 118.000000)">
                <path d="M269.6,612.7 L0.6,612.7 L0.6,29.3 L1.8,29.6 C2.9,29.8 111.6,51.7 268.4,14.2 L269.6,13.9 L269.6,612.7 L269.6,612.7 Z M2.6,610.7 L267.6,610.7 L267.6,16.4 C186,35.8 118.2,38.9 75.5,38.1 C34.5,37.3 8.3,32.8 2.6,31.8 L2.6,610.7 Z" id="Shape"></path>
                <path d="M489,612.7 L268.6,612.7 L268.6,610.7 L487,610.7 L487,3.2 C349.5,37 269.1,16.3 268.3,16.1 L268.8,14.2 C269.6,14.4 350,35.1 487.7,1 L488.9,0.7 L488.9,612.7 L489,612.7 Z" id="Path"></path>
                <polygon id="Path" points="488 613.2 488 611.2 720.4 611 720.4 98.4 569.5 44.8 569.5 44.7 487.6 2.8 488.5 1.1 570.3 42.9 722.4 97 722.4 613"></polygon>
                <rect id="Rectangle" x="568.9" y="43.9" width="2" height="567.8"></rect>
                <path d="M77.7,60.8 C72.8,60.8 68,60.7 63.2,60.6 C20.8,59.6 1.5,54.1 1.3,54.1 L1.9,52.2 C2.7,52.4 79.2,73.4 268.5,38.9 L268.7,38.9 L268.9,38.9 C269.1,38.9 291.8,42.5 329.9,42.8 C365.1,43.1 421,40.5 487.6,26.7 L487.9,26.6 L488.2,26.7 L528.2,45.9 L527.3,47.7 L487.6,28.7 C362.6,54.4 273.2,41.5 268.7,40.8 C217.6,50.1 144.7,60.8 77.7,60.8 Z" id="Path"></path>
                <rect id="Rectangle" x="526.6" y="22.2" width="2" height="588.7"></rect>
                <path d="M90.4,134.6 C35.7,134.6 2.1,129.5 1.5,129.4 L1.8,127.4 C2.9,127.6 116.8,145 268.5,115.2 L268.7,115.2 L268.9,115.2 C270.1,115.3 385.4,128.1 488,105 L488.3,104.9 L528.3,122.4 L527.5,124.2 L488.1,107 C387,129.7 273.7,117.7 268.8,117.2 C198.8,130.9 136.9,134.6 90.4,134.6 Z" id="Path"></path>
                <path d="M90.4,156.8 C35.7,156.8 2.1,151.7 1.5,151.6 L1.8,149.6 C2.9,149.8 116.8,167.2 268.5,137.4 L268.7,137.4 L268.9,137.4 C270.1,137.5 385.4,150.3 488,127.2 L488.3,127.1 L528.3,144.6 L527.5,146.4 L488.1,129.2 C387,151.9 273.7,139.9 268.8,139.4 C198.8,153.1 136.9,156.8 90.4,156.8 Z" id="Path"></path>
                <path d="M86.4,231.2 C34,231.2 2.1,227.2 1.5,227.1 L1.8,225.1 C2.9,225.2 116.7,239.4 268.5,213.9 L268.6,213.9 L268.7,213.9 C269.9,214 385.2,227.8 487.8,204.7 L488.1,204.6 L528,218 L527.4,219.9 L488,206.7 C386.9,229.4 273.4,216.4 268.7,215.9 C196.7,228 133.4,231.2 86.4,231.2 Z" id="Path"></path>
                <path d="M86.4,251.6 C34,251.6 2.1,247.6 1.5,247.5 L1.8,245.5 C2.9,245.6 116.7,259.8 268.5,234.3 L268.6,234.3 L268.7,234.3 C269.9,234.4 385.2,248.2 487.8,225.1 L488.1,225 L528,238.4 L527.4,240.3 L488,227.1 C386.9,249.8 273.4,236.8 268.7,236.3 C196.7,248.4 133.4,251.6 86.4,251.6 Z" id="Path"></path>
                <path d="M89.7,326 C35.5,326 2.1,322.7 1.5,322.6 L1.7,320.6 C2.8,320.7 117.7,332.1 268.5,312.3 L268.6,312.3 L268.7,312.3 C269.9,312.4 387,321.6 487.9,307.1 L488.1,307.1 L527.9,315.5 L527.5,317.5 L488,309.2 C388.3,323.5 272.8,314.7 268.6,314.4 C198.7,323.5 136.5,326 89.7,326 Z" id="Path"></path>
                <path d="M89.7,346.3 C35.5,346.3 2.1,343 1.5,342.9 L1.7,340.9 C2.8,341 117.7,352.4 268.5,332.6 L268.6,332.6 L268.7,332.6 C269.9,332.7 387,341.9 487.9,327.4 L488.1,327.4 L527.9,335.8 L527.5,337.8 L488,329.5 C388.3,343.8 272.8,335 268.6,334.7 C198.7,343.8 136.5,346.3 89.7,346.3 Z" id="Path"></path>
                <path d="M104.6,420.1 C41.5,420.1 2.2,416.8 1.5,416.7 L1.7,414.7 C2.8,414.8 116.6,424.4 268.5,410.7 L268.6,410.7 L268.7,410.7 C269.9,410.8 387.8,418 487.9,406.5 L488.1,406.5 L488.3,406.5 L528,414.8 L527.6,416.8 L488.1,408.5 C388.9,419.8 272.3,412.9 268.8,412.7 C205.6,418.4 149.2,420.1 104.6,420.1 Z" id="Path"></path>
                <path d="M91.2,441.4 C35.9,441.4 2.2,439.6 1.6,439.6 L1.7,437.6 C2.8,437.7 115.9,443.5 268.6,433.6 L268.7,433.6 L268.8,433.6 C270,433.7 387.9,440.9 488,429.4 L488.2,429.4 L488.4,429.4 L528.1,437.7 L527.7,439.7 L488.2,431.4 C388.9,442.7 272.2,435.8 268.8,435.6 C199,440.1 137.5,441.4 91.2,441.4 Z" id="Path"></path>
                <path d="M126.2,516.2 C50.7,516.2 2.3,514.6 1.6,514.6 L1.7,512.6 C2.8,512.6 116.7,516.4 268.7,512.3 C269.9,512.3 386.7,516.3 488.1,510.1 L488.2,510.1 L488.3,510.1 L528,512.3 L527.9,514.3 L488.3,512.1 C386.8,518.3 270,514.3 268.9,514.3 C215.4,515.7 166.8,516.2 126.2,516.2 Z" id="Path"></path>
                <path d="M126.2,536 C50.7,536 2.3,534.4 1.6,534.4 L1.7,532.4 C2.8,532.4 116.7,536.2 268.7,532.1 C269.9,532.1 386.7,536.1 488.1,529.9 L488.2,529.9 L488.3,529.9 L528,532.1 L527.9,534.1 L488.3,531.9 C386.8,538.1 270,534.1 268.9,534.1 C215.4,535.6 166.8,536 126.2,536 Z" id="Path"></path>
                <polygon id="Path" points="234.6 122.3 232.6 122.3 232.6 59.2 268.1 38.9 269.1 40.7 234.6 60.3"></polygon>
                <polygon id="Path" points="234.6 220.2 232.6 220.2 232.6 155.3 268.2 137.4 269.1 139.2 234.6 156.5"></polygon>
                <polygon id="Path" points="234.6 317.5 232.6 317.5 232.6 250 268.2 234.4 269 236.2 234.6 251.3"></polygon>
                <polygon id="Path" points="234.6 414.6 232.6 414.6 232.6 342.9 268.3 332.7 268.9 334.6 234.6 344.4"></polygon>
                <polygon id="Path" points="234.6 514.1 232.6 514.1 232.6 439.6 268.5 433.6 268.8 435.6 234.6 441.2"></polygon>
                <rect id="Rectangle" x="232.6" y="534" width="2" height="78"></rect>
                <polygon id="Path" points="14.9 76.9 0.7 53.6 2.5 52.6 16 74.8 233.5 58.8 233.6 60.8"></polygon>
                <rect id="Rectangle" x="14.4" y="75.8" width="2" height="54.2"></rect>
                <polygon id="Path" points="15 167.8 0.8 151.2 2.4 149.9 15.9 165.7 233.5 154.9 233.6 156.9"></polygon>
                <rect id="Rectangle" x="14.4" y="166.8" width="2" height="60.8"></rect>
                <polygon id="Path" points="15 260.4 0.9 247.3 2.3 245.8 15.8 258.4 233.5 249.7 233.6 251.7"></polygon>
                <rect id="Rectangle" x="14.4" y="259.4" width="2" height="63.3"></rect>
                <polygon id="Path" points="15.1 352 1 342.7 2.2 341.1 15.7 350 233.5 342.7 233.6 344.7"></polygon>
                <rect id="Rectangle" x="14.4" y="351" width="2" height="65.7"></rect>
                <rect id="Rectangle" x="110.7" y="439.4" width="122.9" height="2"></rect>
                <polygon id="Path" points="14.7 514.1 12.7 514.1 12.7 442.3 1.6 439.8 2.1 437.9 14.7 440.7"></polygon>
                <rect id="Rectangle" transform="translate(55.182346, 440.894416) rotate(-0.783297) translate(-55.182346, -440.894416) " x="13.6826179" y="439.894423" width="82.9994562" height="1.9999869"></rect>
                <rect id="Rectangle" x="12.6" y="533.8" width="2" height="78.4"></rect>
                <polygon id="Path" points="268.7 59.2 268.5 57.2 488.2 35 528 53.2 527.2 55 487.9 37.1"></polygon>
                <polygon id="Path" points="268.7 156.8 268.5 154.8 488.2 132.7 528 149.8 527.2 151.7 487.9 134.7"></polygon>
                <polygon id="Path" points="268.7 250.3 268.6 248.3 488.2 233.8 527.9 246.9 527.3 248.8 487.9 235.8"></polygon>
                <polygon id="Path" points="268.7 343.5 268.6 341.5 488.1 331 488.2 331 527.8 339.1 527.4 341 488 333"></polygon>
                <polygon id="Path" points="26.8 131.1 24.8 131.1 24.8 84.2 162.6 74.7 162.6 130.8 160.6 130.8 160.6 76.9 26.8 86.1"></polygon>
                <rect id="Rectangle" x="92.7" y="80.5" width="2" height="53.2"></rect>
                <polygon id="Path" points="188.9 128.4 186.9 128.4 186.9 73.3 230.8 70.5 230.8 122.9 228.8 122.9 228.8 72.6 188.9 75.2"></polygon>
                <rect id="Rectangle" x="207.9" y="72.9" width="2" height="53"></rect>
                <polygon id="Path" points="26.8 228.3 24.8 228.3 24.8 175.7 162.6 166.2 162.6 227.5 160.6 227.5 160.6 168.4 26.8 177.6"></polygon>
                <rect id="Rectangle" x="92.7" y="172" width="2" height="58.3"></rect>
                <polygon id="Path" points="188.9 225.5 186.9 225.5 186.9 164.8 230.8 162 230.8 220.7 228.8 220.7 228.8 164.1 188.9 166.7"></polygon>
                <rect id="Rectangle" x="207.9" y="164.4" width="2" height="58.9"></rect>
                <polygon id="Path" points="27.6 323.4 25.6 323.4 25.6 268.8 162.8 262 162.8 323.3 160.8 323.3 160.8 264.1 27.6 270.7"></polygon>
                <rect id="Rectangle" x="93.2" y="266.4" width="2" height="58.3"></rect>
                <polygon id="Path" points="189.1 321.7 187.1 321.7 187.1 261.1 230.8 259.1 230.8 317.8 228.8 317.8 228.8 261.2 189.1 263"></polygon>
                <rect id="Rectangle" x="208" y="261.1" width="2" height="58.9"></rect>
                <polygon id="Path" points="162.8 418.2 160.8 418.2 160.8 357.3 27.6 362.7 27.6 417.3 25.6 417.3 25.6 360.7 162.8 355.3"></polygon>
                <rect id="Rectangle" x="93.2" y="359" width="2" height="60.2"></rect>
                <polygon id="Path" points="189.1 417.2 187.1 417.2 187.1 354.5 230.8 352.9 230.8 414.8 228.8 414.8 228.8 355 189.1 356.5"></polygon>
                <rect id="Rectangle" x="208" y="354.7" width="2" height="61.4"></rect>
                <polygon id="Path" points="160.9 515 160.8 449.9 27.6 452.6 27.7 514.1 25.7 514.1 25.6 450.6 162.8 447.9 162.9 515"></polygon>
                <rect id="Rectangle" transform="translate(94.303200, 482.450972) rotate(-0.087949) translate(-94.303200, -482.450972) " x="93.3031987" y="450.300934" width="2.00000236" height="64.3000758"></rect>
                <polygon id="Path" points="187.2 514.5 187.1 447.6 230.8 446.9 230.9 512.9 228.9 512.9 228.8 449 189.1 449.6 189.2 514.5"></polygon>
                <rect id="Rectangle" transform="translate(209.003097, 481.050985) rotate(-0.086298) translate(-209.003097, -481.050985) " x="208.003096" y="448.300948" width="2.00000227" height="65.5000743"></rect>
                <polygon id="Path" points="160.9 611.6 160.8 543.2 27.6 544.6 27.7 611.6 25.7 611.6 25.6 542.7 26.6 542.6 162.8 541.2 162.9 611.6"></polygon>
                <rect id="Rectangle" transform="translate(94.302641, 577.300919) rotate(-0.082175) translate(-94.302641, -577.300919) " x="93.3026397" y="542.900883" width="2.00000206" height="68.8000708"></rect>
                <polygon id="Path" points="228.9 611.6 228.8 542.9 189.1 543.2 189.2 611.4 187.2 611.4 187.1 541.2 230.8 540.9 230.9 611.6"></polygon>
                <rect id="Rectangle" transform="translate(209.002853, 576.901013) rotate(-0.081212) translate(-209.002853, -576.901013) " x="208.002852" y="542.100978" width="2.00000201" height="69.6000699"></rect>
                <polygon id="Path" points="339.2 119.8 337.2 119.8 337.2 65.6 268.7 71.1 268.5 69.1 339.2 63.4"></polygon>
                <rect id="Rectangle" x="295.3" y="67.8" width="2" height="50.5"></rect>
                <polygon id="Path" points="352.7 119.8 350.7 119.8 350.7 62.3 476.8 48.1 476.8 108.5 474.8 108.5 474.8 50.3 352.7 64.1"></polygon>
                <rect id="Rectangle" x="411.2" y="56.4" width="2" height="60.8"></rect>
                <polygon id="Path" points="339.2 219.1 337.2 219.1 337.2 161.1 268.7 165.8 268.6 163.8 339.2 158.9"></polygon>
                <rect id="Rectangle" x="295.3" y="162.9" width="2" height="54.4"></rect>
                <polygon id="Path" points="352.7 219.1 350.7 219.1 350.7 158 476.8 145.2 476.8 208.3 474.8 208.3 474.8 147.4 352.7 159.8"></polygon>
                <rect id="Rectangle" x="411.2" y="152.7" width="2" height="64.1"></rect>
                <polygon id="Path" points="339.2 316.6 337.2 316.6 337.2 258.6 268.7 261.6 268.6 259.6 339.2 256.5"></polygon>
                <rect id="Rectangle" x="295.3" y="259.4" width="2" height="55.6"></rect>
                <polygon id="Path" points="352.7 316.3 350.7 316.3 350.7 255.8 476.9 246.2 476.9 309.3 474.9 309.3 474.9 248.4 352.7 257.7"></polygon>
                <rect id="Rectangle" x="411.3" y="252.2" width="2" height="62.9"></rect>
                <polygon id="Path" points="339.2 414 337.2 414 337.2 353.2 268.6 354.9 268.6 352.9 339.2 351.2"></polygon>
                <rect id="Rectangle" x="295.3" y="353.2" width="2" height="59.9"></rect>
                <polygon id="Path" points="352.7 414 350.7 414 350.7 350.7 476.9 343.5 476.9 408.8 474.9 408.8 474.9 345.6 352.7 352.6"></polygon>
                <rect id="Rectangle" x="411.3" y="348.2" width="2" height="64.9"></rect>
                <polygon id="Path" points="339.2 514.4 337.2 514.4 337.2 449.6 268.6 450.1 268.6 448.1 339.2 447.6"></polygon>
                <rect id="Rectangle" x="295.3" y="448.9" width="2" height="65.1"></rect>
                <polygon id="Path" points="352.7 514.7 350.7 514.7 350.7 447.4 476.9 442.5 476.9 511.8 474.9 511.8 474.9 444.6 352.7 449.3"></polygon>
                <rect id="Rectangle" x="411.3" y="446" width="2" height="67.7"></rect>
                <polygon id="Path" points="339.2 612.2 337.2 612.2 337.2 546.6 268.6 545.2 268.6 543.2 339.2 544.6"></polygon>
                <rect id="Rectangle" x="295.3" y="544.7" width="2" height="67.5"></rect>
                <polygon id="Path" points="352.7 612.2 350.7 612.2 350.7 544.7 351.7 544.6 476.9 543.1 476.9 612 474.9 612 474.9 545.1 352.7 546.6"></polygon>
                <rect id="Rectangle" x="411.3" y="544.9" width="2" height="67.4"></rect>
            </g>
            <g id="Bud_x5F_E" transform="translate(1945.000000, 258.000000)">
                <path d="M193.7,0.9 L193.7,1.5 C188.9,4.5 142.8,31.8 11.5,40.4 L10.6,40.5 L10.6,55.6 L0,57.4 L1.3,471.9 L1.3,472.9 L10.6,472.9 L18.7,472.9 L193.7,472.9 L194.7,472.9 L250.6,472.9 L250.6,8 L193.7,0.9 Z M96.4,404.7 L96.4,411.9 L52.4,412.5 L52.4,470.7 L42.7,470.7 L42.7,405.4 C62.5,405.3 80.4,405 96.4,404.7 Z M54.4,414.6 L82.1,414.2 L82.1,470.8 L54.4,470.8 L54.4,414.6 Z M84.1,414.1 L96.4,413.9 L96.4,470.7 L84.1,470.7 L84.1,414.1 Z M98.4,404.9 L117.8,404.4 L117.8,470.8 L98.4,470.8 L98.4,404.9 Z M119.8,404.3 C132.3,404 143.3,403.8 152.6,403.5 L152.6,470.7 L119.8,470.7 L119.8,404.3 Z M154.6,403.5 C160.1,403.4 165.1,403.2 169.4,403.1 L169.4,470.8 L154.6,470.8 L154.6,403.5 Z M119.8,402.3 L119.8,402.3 L119.4,402.3 C91.6,402.9 56.1,403.4 12.6,403.8 L12.6,394 C126.2,393 185.5,390.8 193.7,390.4 L193.7,400.2 C188.7,400.5 164.3,401.4 119.8,402.3 Z M234.2,85.9 L200.1,83.8 L200.1,40.3 L234.2,35.5 L234.2,85.9 Z M248.6,88.8 L248.6,99.9 L195.7,95.6 L195.7,85.5 L248.6,88.8 Z M234.2,312.6 L200.1,312.3 L200.1,263.5 L234.2,258.7 L234.2,312.6 Z M248.6,314.7 L248.6,325 L195.7,324.6 L195.7,314.3 L248.6,314.7 Z M119.8,49.6 L150.4,42.6 L150.4,97.5 C141.6,99.6 131.4,101.8 119.8,103.8 L119.8,49.6 Z M152.4,42.5 L170.6,44.8 L170.6,92 C165.4,93.6 159.3,95.3 152.4,97 L152.4,42.5 Z M172.6,44.7 L193.7,38.7 L193.7,83.8 C191.8,84.7 184.8,87.7 172.6,91.5 L172.6,44.7 Z M234.2,162.4 L200.1,160.3 L200.1,114.3 L234.2,109.5 L234.2,162.4 Z M248.6,165.3 L248.6,176.5 L195.7,173.2 L195.7,162 L248.6,165.3 Z M193.7,254.8 L170.4,258.2 L153.6,258.2 L118.7,262.1 L114.9,262 C161.8,257.7 187.8,251.9 193.6,250.5 L193.6,254.8 L193.7,254.8 Z M193.7,329.2 L170.4,330.5 L128.8,332.1 C167.2,329.9 188.7,327.3 193.7,326.7 L193.7,329.2 Z M193.7,324.7 C186,325.7 126.7,332.7 12.6,333.8 L12.6,323.5 C125.6,322.4 185,315.5 193.7,314.4 L193.7,324.7 Z M193.7,236.1 C191.5,236.6 184.5,238.3 172.6,240.3 L172.6,188.3 L193.7,182.3 L193.7,236.1 Z M193.7,180.2 L171.4,186.6 L152.4,187.8 L152.4,187.7 L118.7,191.5 L118.7,191.5 L110.7,191.2 C126.4,189.4 139.5,187.4 149.9,185.6 C174.9,181.2 189.4,176.8 193.7,175.4 L193.7,180.2 Z M96.4,195.2 L41.7,199.7 L23.9,196.9 C51.7,196.3 75.9,194.8 96.4,192.8 L96.4,195.2 Z M42.7,201.6 L96.4,197.2 L96.4,201.8 L52.4,207.4 L52.4,251.6 C49.2,251.7 46,251.8 42.7,251.9 L42.7,201.6 Z M54.4,209.2 L82.1,205.7 L82.1,250.2 C73.4,250.7 64.2,251.2 54.4,251.6 L54.4,209.2 Z M84.1,205.4 L96.4,203.8 L96.4,249.1 C92.4,249.4 88.3,249.7 84.1,249.9 L84.1,205.4 Z M98.4,192.9 L117.8,193.5 L117.8,247.3 C111.7,247.9 105.2,248.4 98.4,249 L98.4,192.9 Z M119.8,193.4 L150.4,189.9 L150.4,243.6 C141.6,244.8 131.4,246 119.8,247.1 L119.8,193.4 Z M152.4,189.8 L170.6,188.6 L170.6,240.6 C165.4,241.5 159.3,242.4 152.4,243.4 L152.4,189.8 Z M193.7,173.4 C190.5,174.4 175.8,179 149.5,183.7 C122.1,188.5 76.1,194.4 12.6,195.1 L12.6,183.8 C76.3,183.2 122.4,177.3 149.9,172.4 C174.9,168 189.4,163.6 193.7,162.2 L193.7,173.4 L193.7,173.4 Z M42.7,131.8 L96.4,125.8 L96.4,132.8 L52.4,138.4 L52.4,180.8 C49.2,181 46,181.1 42.7,181.2 L42.7,131.8 Z M119.8,120.7 L150.4,115.2 L150.4,170.3 C150.1,170.4 149.8,170.4 149.5,170.5 C141.3,172 131.4,173.5 119.8,175 L119.8,120.7 Z M152.4,115.1 L170.6,115.8 L170.6,166.3 C165.4,167.5 159.3,168.7 152.4,170 L152.4,115.1 Z M117.8,175.2 C111.8,176 105.3,176.7 98.4,177.4 L98.4,120.2 L117.8,120.8 L117.8,175.2 Z M84.1,178.7 L84.1,136.3 L96.4,134.7 L96.4,177.6 C92.4,177.9 88.3,178.3 84.1,178.7 Z M54.4,180.6 L54.4,140.1 L82.1,136.6 L82.1,178.9 C73.4,179.5 64.2,180.1 54.4,180.6 Z M193.7,160.2 C191.6,160.9 184.6,163.1 172.6,165.8 L172.6,115.5 L193.7,109.5 L193.7,160.2 Z M193.7,107.5 L171.5,113.8 L152.4,113 L152.4,112.8 L118.8,118.8 L108.8,118.5 C161.3,110.7 187.6,100.6 193.8,98 L193.8,107.5 L193.7,107.5 Z M96.4,123.7 L41.7,129.8 L21.7,126.7 C50.5,125.3 75.3,122.9 96.4,120.2 L96.4,123.7 Z M40.7,131.7 L40.7,181.2 C31.8,181.5 22.4,181.7 12.6,181.8 L12.6,127.3 L40.7,131.7 Z M12.6,197.2 L40.7,201.5 L40.7,252 C31.7,252.3 22.4,252.4 12.6,252.5 L12.6,197.2 Z M12.6,254.5 C125.2,253.4 184.6,240.3 193.7,238.1 L193.7,248.4 C188.6,249.6 157,256.9 97.8,261.4 L96.3,261.4 L96.3,261.6 C72.7,263.3 44.8,264.7 12.5,265 L12.5,254.5 L12.6,254.5 Z M119.8,264 L152.6,260.3 L152.6,316.2 C143.2,316.9 132.3,317.6 119.8,318.3 L119.8,264 Z M117.8,318.4 C111.7,318.7 105.2,319 98.4,319.3 L98.4,263.4 L117.8,264 L117.8,318.4 Z M54.4,320.8 L54.4,276.5 L82.1,274.9 L82.1,320 C73.4,320.3 64.2,320.6 54.4,320.8 Z M84.1,274.7 L96.4,274 L96.4,319.5 C92.4,319.7 88.3,319.8 84.1,320 L84.1,274.7 Z M71.9,265.1 L41.9,267.1 L34.2,266.5 C47.6,266.2 60.2,265.7 71.9,265.1 Z M42.9,269 L96.4,265.4 L96.4,271.9 L52.4,274.5 L52.4,320.8 C49.3,320.9 46.1,320.9 42.9,321 L42.9,269 Z M154.6,316.1 L154.6,260.2 L169.4,260.2 L169.4,314.9 C165.1,315.3 160.1,315.7 154.6,316.1 Z M195.7,175.2 L238.1,177.9 L195.7,182.9 L195.7,175.2 Z M195.7,97.6 L238.8,101.1 L195.7,106.2 L195.7,97.6 Z M117.8,104.2 C111.7,105.2 105.2,106.2 98.4,107.1 L98.4,48.5 L117.8,49.7 L117.8,104.2 Z M84.1,108.9 L84.1,66.3 L96.4,64.5 L96.4,107.5 C92.4,107.9 88.3,108.4 84.1,108.9 Z M54.4,111.5 L54.4,70.8 L82.1,66.6 L82.1,109.1 C73.4,110 64.2,110.8 54.4,111.5 Z M96.4,62.4 L52.4,69 L52.4,111.6 C49.2,111.8 46,112 42.7,112.1 L42.7,62.7 L96.4,54.9 L96.4,62.4 Z M40.7,112.2 C31.7,112.6 22.4,112.9 12.6,113 L12.6,57.6 L40.7,62.7 L40.7,112.2 Z M12.6,115 C124.5,113.8 184,90.1 193.7,85.9 L193.7,95.8 C190.9,97 177.9,102.4 152.4,108.3 C139,111.4 120.7,114.9 97.2,118 L96.4,118 L96.4,118.1 C73.5,121.1 45.7,123.7 12.6,125 L12.6,115 L12.6,115 Z M40.9,269 L40.9,321.1 C31.9,321.3 22.4,321.4 12.6,321.5 L12.6,267 L40.9,269 Z M12.6,335.8 C22.4,335.7 31.9,335.6 40.9,335.4 L40.9,391.7 C31.9,391.8 22.4,391.9 12.6,392 L12.6,335.8 Z M42.9,335.3 C62.7,334.9 80.5,334.3 96.4,333.7 L96.4,342.6 L52.4,344.2 L52.4,391.5 C49.3,391.5 46.1,391.6 42.9,391.6 L42.9,335.3 Z M54.4,346.1 L82.1,345.1 L82.1,391.1 C73.4,391.2 64.2,391.4 54.4,391.5 L54.4,346.1 Z M84.1,345 L96.4,344.5 L96.4,390.8 C92.4,390.9 88.3,390.9 84.1,391 L84.1,345 Z M98.4,333.8 L117.8,334.4 L117.8,390.5 C111.7,390.6 105.2,390.7 98.4,390.9 L98.4,333.8 Z M119.8,334.4 L152.6,333.2 L152.6,389.7 C143.2,389.9 132.3,390.2 119.8,390.5 L119.8,334.4 Z M154.6,333.1 L169.4,332.5 L169.4,389.2 C165,389.3 160.1,389.5 154.6,389.6 L154.6,333.1 Z M171.5,332.4 L193.7,331.2 L193.7,388.4 C191.2,388.5 183.8,388.8 171.5,389.1 L171.5,332.4 Z M195.7,326.6 L213.8,326.7 L195.7,327.5 L195.7,326.6 Z M193.7,312.4 C191.3,312.7 183.9,313.6 171.5,314.7 L171.5,260.1 L193.7,256.9 L193.7,312.4 Z M195.7,250.3 L234.9,251.3 L195.7,254.6 L195.7,250.3 Z M195.7,248.3 L195.7,237.9 L248.6,239.3 L248.6,249.7 L195.7,248.3 Z M234.2,236.9 L200.1,236 L200.1,190 L234.2,185.2 L234.2,236.9 Z M236.2,237 L236.2,183 L198.1,188.3 L198.1,236 L195.7,235.9 L195.7,184.9 L248.6,178.6 L248.6,237.3 L236.2,237 Z M236.2,162.5 L236.2,107.2 L198.1,112.5 L198.1,160.1 L195.7,159.9 L195.7,108.1 L248.6,101.8 L248.6,163.2 L236.2,162.5 Z M195.7,22.4 L240.4,26.9 L195.7,32.2 L195.7,22.4 Z M193.7,36.6 L171.5,42.9 L152.4,40.4 L152.4,40 L118.8,47.7 L105.7,46.9 C156.2,37.6 187.1,25.5 193.8,22.7 L193.8,36.6 L193.7,36.6 Z M96.4,52.9 L41.7,60.8 L20.4,57 C48.9,55.5 74.3,52.4 96.4,48.7 L96.4,52.9 Z M195.7,390.4 L248.6,390.8 L248.6,400.6 L195.7,400.2 L195.7,390.4 Z M234.2,388.7 L200.1,388.4 L200.1,336.7 L234.2,333.8 L234.2,388.7 Z M236.2,388.7 L236.2,331.7 L198.1,334.9 L198.1,388.4 L195.7,388.4 L195.7,329.5 L248.6,327.3 L248.6,388.9 L236.2,388.7 Z M248.6,312.7 L236.2,312.6 L236.2,256.5 L198.1,261.8 L198.1,312.3 L195.7,312.3 L195.7,256.6 L248.6,252.2 L248.6,312.7 Z M248.6,86.8 L236.2,86 L236.2,33.2 L198.1,38.5 L198.1,83.6 L195.7,83.4 L195.7,34.1 L248.6,27.8 L248.6,86.8 Z M248.6,9.7 L248.6,25.6 L195.7,20.3 L195.7,3.1 L248.6,9.7 Z M193.7,3.8 L193.7,20.6 C188.9,22.7 154.7,36.7 97.1,46.4 L96.3,46.4 L96.3,46.6 C72.3,50.7 44.2,53.9 12.5,55.3 L12.5,42.3 C136.7,34 184.8,9.1 193.7,3.8 Z M3.3,470.8 L2,59 L10.6,57.6 L10.6,470.8 L3.3,470.8 Z M12.6,470.8 L12.6,405.9 C22.4,405.8 31.7,405.7 40.7,405.6 L40.7,470.8 L18.7,470.8 L12.6,470.8 L12.6,470.8 Z M171.5,470.8 L171.5,403 C183.8,402.6 191.2,402.4 193.7,402.3 L193.7,470.8 L171.5,470.8 Z M234.2,470.8 L200.1,470.8 L200.1,410.3 L234.2,410.3 L234.2,470.8 Z M236.2,470.8 L236.2,408.3 L198.1,408.3 L198.1,470.8 L195.7,470.8 L195.7,402.3 L248.6,402.7 L248.6,470.8 L236.2,470.8 Z" id="Shape"></path>
            </g>
            <g id="Bud_x5F_D" transform="translate(1544.000000, 277.000000)">
                <g id="Group">
                    <path d="M347.2,23.7 C243.7,24.5 225.4,12.4 223.3,10.7 L223.3,10 L222.2,10.1 C153.2,16.5 78.4,3 69.9,1.3 L69.9,0.5 L0.9,34.6 L1.8,36.4 L55.6,9.8 L55.6,24.5 L54.6,25.1 L55.6,25.2 L55.6,108.2 L54,108.9 L55.6,109 L55.6,179.5 L54,180.1 L55.6,180.2 L55.6,250 L54,250.6 L55.6,250.7 L55.6,451.5 L13.2,451.5 L13.2,396.4 L5,396.4 L5,451.5 L1.4,451.5 L1.4,453.5 L5,453.5 L13.2,453.5 L68.9,453.5 L69.9,453.5 L222.2,453.5 L223.2,453.5 L348.1,453.5 L348.1,23.7 L347.2,23.7 Z M11.4,398.4 L11.4,429.7 L7.2,429.7 L7.2,398.4 L11.4,398.4 Z M7.1,451.6 L7.1,431.8 L11.3,431.8 L11.3,451.6 L7.1,451.6 Z M346.2,395.2 C267.3,397.7 229.8,395.8 223.3,395.4 L223.3,383 C227.7,383.3 245.7,384.5 280.2,384.5 C297.8,384.5 319.7,384.2 346.2,383.4 L346.2,395.2 Z M155.3,404.6 L165.8,404.6 L165.8,451.6 L155.3,451.6 L155.3,404.6 Z M153.3,451.6 L149.3,451.6 L149.3,404.6 L153.3,404.6 L153.3,451.6 Z M147.4,402.6 L147.4,451.6 L142,451.6 L142,402.4 L70.1,400.4 L70.1,395.3 C76.6,395.6 113.3,397.3 173.7,397.5 L173.7,451.6 L167.9,451.6 L167.9,402.6 L147.4,402.6 Z M139.9,404.4 L139.9,451.6 L119.2,451.6 L119.2,403.8 L139.9,404.4 Z M68,24.8 L60.7,23.9 L68,19.6 L68,24.8 Z M70,19.2 C78.5,21.4 129,33.3 217.3,30.1 L201.6,37.2 L166.2,37.2 L70,25.1 L70,19.2 L70,19.2 Z M330.9,43.3 L331.9,43.3 L331.9,43.3 C336.5,43.4 341.3,43.4 346.2,43.4 L346.2,103.5 C342.3,103.6 338.4,103.7 334.7,103.8 L334.7,47.3 L259.5,47.3 L259.5,100.8 C257.7,100.6 255.9,100.4 254.3,100.2 L254.3,47.3 L223.4,47.3 L223.4,41 L328.1,43.3 C329,43.3 330,43.3 330.9,43.3 Z M332.7,56.2 L261.5,56.2 L261.5,49.4 L332.7,49.4 L332.7,56.2 Z M261.5,58.2 L279.5,58.2 L279.5,102.7 C272.8,102.2 266.8,101.7 261.5,101.1 L261.5,58.2 Z M281.5,58.2 L332.7,58.2 L332.7,103.9 C312.5,104.2 295.4,103.7 281.5,102.8 L281.5,58.2 Z M261.5,171.9 L261.5,128.5 L279.5,128.8 L279.5,173.5 C272.8,173 266.8,172.4 261.5,171.9 Z M281.5,128.7 L332.7,129.5 L332.7,174.7 C312.5,175 295.4,174.5 281.5,173.6 L281.5,128.7 Z M259.5,126.4 L259.5,171.6 C257.7,171.4 255.9,171.2 254.3,171 L254.3,126.4 L223.4,126.4 L223.4,120.4 L316.3,121.2 L316.3,121.2 C325.5,121.6 335.5,121.8 346.2,121.8 L346.2,174.4 C342.3,174.5 338.4,174.6 334.7,174.7 L334.7,127.6 L259.5,126.4 Z M252.3,241.2 C245.2,240.6 239.4,240 234.9,239.5 L234.9,198.8 L252.3,198.8 L252.3,241.2 Z M232.9,239.3 C227.8,238.7 224.7,238.1 223.3,237.9 L223.3,198.9 L232.9,198.9 L232.9,239.3 Z M252.3,311.6 C245.2,311.2 239.4,310.8 234.9,310.4 L234.9,268.5 L252.3,268.5 L252.3,311.6 Z M232.9,310.2 C227.9,309.7 224.7,309.3 223.3,309.1 L223.3,268.5 L232.9,268.5 L232.9,310.2 Z M252.3,382.1 C245.2,381.9 239.4,381.8 234.9,381.6 L234.9,338.3 L252.3,338.3 L252.3,382.1 Z M232.9,381.5 C228,381.3 224.8,381.1 223.3,381 L223.3,338.4 L232.9,338.4 L232.9,381.5 Z M149.4,380.6 L149.4,335.6 L153.4,335.7 L153.4,380.6 C152,380.6 150.7,380.6 149.4,380.6 Z M155.3,335.7 L165.8,336 L165.8,380.7 C162.2,380.7 158.7,380.7 155.3,380.6 L155.3,335.7 Z M147.4,333.5 L147.4,380.6 C145.6,380.6 143.7,380.6 142,380.6 L142,333.4 L70.1,329.5 L70.1,319.6 C76.8,320.4 113.4,324.3 173.7,325.3 L173.7,380.8 C171.7,380.8 169.8,380.8 167.9,380.8 L167.9,334.2 L147.4,333.5 Z M57.7,321.2 L68,319.6 L68,329.4 L64.5,329.2 L64.5,380 L57.7,380.3 L57.7,321.2 Z M139.9,266.2 L139.9,308 C132.4,307.8 125.5,307.6 119.2,307.4 L119.2,264.4 L139.9,266.2 Z M221.4,311 L221.4,323.4 C131.9,324.3 77.5,318.4 70.1,317.5 L70.1,307.1 C77.9,307.6 129.1,310.8 221.4,311 Z M165.8,308.5 C162.2,308.4 158.7,308.4 155.3,308.3 L155.3,267.2 L165.8,267.9 L165.8,308.5 Z M153.3,308.3 C152,308.3 150.6,308.2 149.3,308.2 L149.3,266.8 L153.3,267.1 L153.3,308.3 Z M70,233.7 C78,234.5 129.2,239.4 221.3,239.6 L221.3,251.3 C128.9,255.1 76.9,246.6 70,245.4 L70,233.7 L70,233.7 Z M139.9,193.8 L139.9,236.1 C132.4,235.8 125.5,235.5 119.2,235.2 L119.2,192 L139.9,193.8 Z M165.8,236.9 C162.2,236.8 158.7,236.7 155.3,236.6 L155.3,194.8 L165.8,195.5 L165.8,236.9 Z M153.3,236.5 C152,236.5 150.6,236.4 149.3,236.4 L149.3,194.4 L153.3,194.7 L153.3,236.5 Z M70,161 C73.8,161.7 86.6,163.7 107.7,165.4 C131,167.2 169.6,169 221.3,166.9 L221.3,180.8 C128.9,184.6 76.9,176.2 70,174.9 L70,161 L70,161 Z M139.9,123.2 L139.9,165.2 C132.4,164.9 125.5,164.6 119.2,164.2 L119.2,121.4 L139.9,123.2 Z M165.8,165.8 C162.2,165.8 158.7,165.7 155.3,165.6 L155.3,124.1 L165.8,124.8 L165.8,165.8 Z M153.3,165.6 C152,165.6 150.6,165.5 149.3,165.5 L149.3,123.8 L153.3,124.1 L153.3,165.6 Z M166.5,45.7 L166.5,52.9 L119.1,46.8 L119.1,39.4 L166.5,45.7 Z M166.5,54.9 L166.5,95 C147.7,94.7 131.8,94 119.1,93 L119.1,48.8 L166.5,54.9 Z M117.2,92.8 C114,92.6 111,92.3 108.2,92 C85.3,89.9 72.4,87.4 70,86.9 L70,42.3 L117.2,48.4 L117.2,92.8 Z M107.9,94 C131.1,96.1 169.7,98.2 221.3,96.1 L221.3,106.3 C172.6,110 133.9,108.9 110,107.3 C87.4,105.8 73.4,103.5 69.9,103 L69.9,89 C73.3,89.6 86.1,92 107.9,94 Z M197.8,53 L179.8,53 L179.8,45.8 L197.8,45.8 L197.8,53 Z M179.8,55 L197.8,55 L197.8,94.8 C191.6,94.9 185.6,95 179.8,95 L179.8,55 Z M221.4,108.4 L221.4,164.8 C204.9,165.5 189.6,165.8 175.7,165.8 L175.7,118.2 L221.4,108.4 Z M191.6,183.7 L174.6,185.3 L138,183.1 C153.1,183.7 171,184 191.6,183.7 Z M175.6,187.2 L221.3,182.9 L221.3,237.6 C204.7,237.6 189.5,237.4 175.6,237.1 L175.6,187.2 Z M191.6,254.2 L174.6,255.8 L138,253.6 C153.1,254.2 171,254.5 191.6,254.2 Z M175.6,257.7 L221.3,253.4 L221.3,309 C204.7,309 189.5,308.8 175.6,308.6 L175.6,257.7 Z M66.5,331.3 L68,331.4 L68,379.9 L66.5,380 L66.5,331.3 Z M70,331.5 L117.2,334 L117.2,380.3 C89.9,380.1 74.1,379.9 70,379.8 L70,331.5 Z M119.2,334.1 L139.9,335.2 L139.9,380.5 C132.4,380.5 125.5,380.4 119.2,380.4 L119.2,334.1 Z M175.6,325.3 C189.6,325.5 204.9,325.6 221.3,325.4 L221.3,380.8 C204.7,380.8 189.5,380.7 175.6,380.7 L175.6,325.3 Z M223.4,128.4 L233,128.4 L233,167.5 C227.9,166.4 224.7,165.5 223.4,165.1 L223.4,128.4 Z M234.9,128.4 L252.3,128.4 L252.3,170.7 C252.2,170.7 252,170.7 251.9,170.6 C245,169.7 239.4,168.7 235,167.8 L235,128.4 L234.9,128.4 Z M223.4,118.5 L223.4,108.7 C226.6,109.8 235.3,112.4 251,115.1 C258.7,116.4 268.9,117.8 281.5,119 L223.4,118.5 Z M252.3,56.2 L223.4,56.2 L223.4,49.4 L252.3,49.4 L252.3,56.2 Z M223.4,58.2 L233,58.2 L233,96.7 C227.9,95.6 224.7,94.7 223.4,94.3 L223.4,58.2 Z M234.9,58.2 L252.3,58.2 L252.3,100 C252.2,100 252,100 251.9,99.9 C245,99 239.4,98 235,97.1 L235,58.2 L234.9,58.2 Z M223.4,39 L223.4,30.3 C226.6,31.4 235.3,34 251,36.7 C257.8,37.9 266.3,39.1 276.8,40.2 L223.4,39 Z M221.4,94.1 C215,94.4 208.8,94.6 202.8,94.7 L202.8,38.8 L221.4,30.4 L221.4,94.1 Z M166,39.2 L200.8,39.2 L200.8,94.8 C200.5,94.8 200.1,94.8 199.8,94.8 L199.8,43.8 L177.8,43.8 L177.8,95 C174.6,95 171.6,95 168.5,94.9 L168.5,43.9 L70,30.7 L70,27 L166,39.2 Z M117.2,39.1 L117.2,46.5 L70,40.4 L70,32.8 L117.2,39.1 Z M68,40.1 L66.8,39.9 L66.8,32.3 L68,32.5 L68,40.1 Z M66.8,41.9 L68,42.1 L68,87.4 L66.8,88 L66.8,41.9 Z M68,108 L62.5,107.6 L68,105.3 L68,108 Z M70,104.9 C74,105.6 87.9,107.7 109.9,109.2 C131.7,110.7 165.8,111.8 208.5,109.1 L174.6,116.4 L70.1,108.1 L70.1,104.9 L70,104.9 Z M173.6,118.4 L173.6,165.9 C171.6,165.9 169.7,165.9 167.8,165.9 L167.8,123 L147.3,121.7 L147.3,165.5 C145.5,165.4 143.6,165.4 141.9,165.3 L141.9,121.4 L70,115 L70,110.2 L173.6,118.4 Z M117.2,121.2 L117.2,164.1 C89.6,162.3 73.7,159.7 70,159 L70,117 L117.2,121.2 Z M68,159.1 L66.5,159.5 L66.5,116.7 L68,116.8 L68,159.1 Z M68,179 L63.8,178.8 L68,177.3 L68,179 Z M70,177 C73.7,177.6 85.7,179.6 105.7,181.2 L70,179.1 L70,177 Z M173.6,187.2 L173.6,237 C171.6,237 169.7,236.9 167.8,236.9 L167.8,193.5 L147.3,192.2 L147.3,236.3 C145.5,236.2 143.6,236.2 141.9,236.1 L141.9,192 L70,185.6 L70,181.2 L173.6,187.2 Z M117.2,191.8 L117.2,235.1 C89.6,233.7 73.8,232.2 70,231.8 L70,187.6 L117.2,191.8 Z M68,231.9 L66.5,232.3 L66.5,187.3 L68,187.4 L68,231.9 Z M68,249.5 L63.8,249.3 L68,247.8 L68,249.5 Z M70,247.5 C73.7,248.1 85.7,250.1 105.7,251.7 L70,249.6 L70,247.5 Z M173.6,257.7 L173.6,308.6 C171.6,308.6 169.7,308.5 167.8,308.5 L167.8,266 L147.3,264.7 L147.3,308.1 C145.5,308.1 143.6,308 141.9,308 L141.9,264.4 L70,258 L70,251.6 L173.6,257.7 Z M117.2,264.2 L117.2,307.3 C89.7,306.4 73.9,305.4 70,305.1 L70,260 L117.2,264.2 Z M68,305.1 L66.5,305.3 L66.5,259.7 L68,259.8 L68,305.1 Z M68,307.2 L68,317.6 L57.7,319.2 L57.7,308.4 L68,307.2 Z M57.7,382.3 L68,381.9 L68,393.3 L57.7,393.8 L57.7,382.3 Z M70,393.3 L70,381.9 C77.7,382 129,382.7 221.3,382.9 L221.3,395.3 C132.1,396.2 77.7,393.7 70,393.3 Z M332.7,381.7 C312.7,382.2 295.7,382.4 281.5,382.4 L281.5,338.6 L332.7,339.4 L332.7,381.7 Z M279.5,382.4 C272.9,382.4 266.9,382.4 261.5,382.3 L261.5,338.3 L279.5,338.6 L279.5,382.4 Z M346.2,381.3 C342.3,381.4 338.4,381.5 334.7,381.6 L334.7,337.4 L259.5,336.3 L259.5,382.3 C257.7,382.3 255.9,382.2 254.3,382.2 L254.3,336.3 L223.4,336.3 L223.4,325.5 C228.7,326.2 252.6,328.9 299.8,328.9 C313.3,328.9 328.8,328.7 346.3,328.1 L346.3,381.3 L346.2,381.3 Z M346.2,326.2 C266.8,328.7 229.3,324.4 223.3,323.6 L223.3,311.2 C228.7,311.9 253,314.8 301.2,314.8 C314.4,314.8 329.4,314.6 346.2,314 L346.2,326.2 Z M332.7,312.4 C312.7,312.9 295.7,312.9 281.5,312.6 L281.5,268.9 L332.7,269.7 L332.7,312.4 Z M279.5,312.6 C272.9,312.5 266.9,312.3 261.5,312.1 L261.5,268.6 L279.5,268.9 L279.5,312.6 Z M346.2,312 C342.3,312.1 338.4,312.2 334.7,312.3 L334.7,267.6 L259.5,266.5 L259.5,311.9 C257.7,311.8 255.9,311.7 254.3,311.7 L254.3,266.5 L223.4,266.5 L223.4,253.5 C229.4,254.8 257.8,260.1 314.6,260.1 C324.3,260.1 334.9,259.9 346.3,259.6 L346.3,312 L346.2,312 Z M346.2,257.6 C266.4,260.1 229,252.7 223.3,251.5 L223.3,239.9 C229.1,241 256.2,245.3 310.2,245.3 C321.1,245.3 333.1,245.1 346.2,244.7 L346.2,257.6 Z M332.7,243 C312.7,243.4 295.7,243.3 281.5,242.8 L281.5,199.2 L332.7,200 L332.7,243 Z M279.5,242.7 C272.9,242.5 266.9,242.2 261.5,241.8 L261.5,198.8 L279.5,199.1 L279.5,242.7 Z M346.2,242.6 C342.3,242.7 338.4,242.8 334.7,242.9 L334.7,197.9 L259.5,196.8 L259.5,241.7 C257.7,241.6 255.9,241.5 254.3,241.3 L254.3,196.8 L223.4,196.8 L223.4,183.1 C226.5,183.9 235.5,186.1 251.5,188.1 C266,189.9 288.6,191.7 319.8,191.7 C328,191.7 336.8,191.6 346.2,191.3 L346.2,242.6 L346.2,242.6 Z M346.2,189.3 C301.2,190.7 270,188.3 251.8,186.1 C235,184 225.8,181.7 223.3,181 L223.3,167.2 C226.5,168.1 235.4,170.5 251.4,172.7 C266.2,174.7 289.4,176.8 321.6,176.8 C329.3,176.8 337.4,176.7 346.1,176.4 L346.1,189.3 L346.2,189.3 Z M346.2,119.8 C300.5,119.7 269.4,116.1 251.4,113 C234.6,110.2 225.7,107.3 223.3,106.5 L223.3,96.4 C226.5,97.3 235.4,99.7 251.4,101.9 C266.2,103.9 289.4,106 321.6,106 C329.3,106 337.4,105.9 346.1,105.6 L346.1,119.8 L346.2,119.8 Z M346.2,25.7 L346.2,41.5 C340.9,41.5 335.9,41.4 331,41.3 L327.9,41.2 C292.1,40.4 266.9,37.3 251.4,34.6 C234.6,31.8 225.7,28.9 223.3,28.1 L223.3,13 C229.3,16.8 253.8,26.4 346.2,25.7 Z M221.4,12.2 L221.4,27.9 C143.2,31.1 88.8,22.4 70.1,17.1 L70.1,3.4 C80.2,5.3 153.3,18.3 221.4,12.2 Z M57.7,8.9 L68,3.8 L68,17.3 L57.7,23.4 L57.7,8.9 Z M68,26.8 L68,30.4 L64.8,30 L64.8,89 L57.7,92.6 L57.7,25.5 L68,26.8 Z M57.7,94.9 L68,89.6 L68,103 L57.7,107.3 L57.7,94.9 Z M68,110 L68,114.8 L64.5,114.5 L64.5,160 L57.7,161.9 L57.7,109.2 L68,110 Z M57.7,164 L68,161.2 L68,175.1 L57.7,178.9 L57.7,164 Z M68,181 L68,185.4 L64.5,185.1 L64.5,232.9 L57.7,234.8 L57.7,180.5 L68,181 Z M57.7,236.8 L68,234 L68,245.6 L57.7,249.4 L57.7,236.8 Z M68,251.5 L68,257.8 L64.5,257.5 L64.5,305.6 L57.7,306.4 L57.7,250.9 L68,251.5 Z M57.7,395.8 L68,395.3 L68,400.4 L64.5,400.3 L64.5,451.6 L57.7,451.6 L57.7,395.8 Z M66.5,451.6 L66.5,402.4 L68,402.4 L68,451.6 L66.5,451.6 Z M70,402.4 L117.2,403.7 L117.2,451.5 L70,451.5 L70,402.4 Z M175.6,451.6 L175.6,397.5 C189.6,397.5 204.9,397.5 221.3,397.3 L221.3,451.6 L175.6,451.6 L175.6,451.6 Z M223.4,407.5 L233,407.5 L233,451.6 L223.4,451.6 L223.4,407.5 Z M252.3,451.6 L234.9,451.6 L234.9,407.5 L252.3,407.5 L252.3,451.6 Z M332.7,451.6 L281.5,451.6 L281.5,407.8 L332.7,408.6 L332.7,451.6 Z M279.5,451.6 L261.5,451.6 L261.5,407.5 L279.5,407.8 L279.5,451.6 Z M334.7,451.6 L334.7,406.6 L259.5,405.5 L259.5,451.6 L254.3,451.6 L254.3,405.5 L223.4,405.5 L223.4,397.4 C227.5,397.6 243.4,398.5 273.6,398.5 C292.2,398.5 316.3,398.2 346.3,397.2 L346.3,451.6 L334.7,451.6 Z" id="Shape"></path>
                    <path d="M13.4,42.9 L5.2,48.5 L5.2,117.1 L13.4,113.6 L13.4,42.9 Z M11.4,46.7 L11.4,88.2 L7.2,90.1 L7.2,49.6 L11.4,46.7 Z M7.1,114.1 L7.1,92.3 L11.3,90.4 L11.3,112.3 L7.1,114.1 Z" id="Shape"></path>
                    <path d="M5.1,184.2 L13.3,180.7 L13.3,120.4 L5.1,126 L5.1,184.2 Z M7.1,181.2 L7.1,159.4 L11.3,157.5 L11.3,179.4 L7.1,181.2 Z M11.4,124.2 L11.4,155.3 L7.2,157.2 L7.2,127.1 L11.4,124.2 Z" id="Shape"></path>
                    <path d="M5.1,252.6 L13.3,251.7 L13.3,191.6 L5.1,194.6 L5.1,252.6 Z M7.1,250.4 L7.1,228.4 L11.3,227.9 L11.3,250 L7.1,250.4 Z M11.4,194.5 L11.4,225.8 L7.2,226.3 L7.2,196 L11.4,194.5 Z" id="Shape"></path>
                    <path d="M5.1,319.5 L13.3,318.6 L13.3,259.9 L5.1,261.5 L5.1,319.5 Z M7.1,317.3 L7.1,295.3 L11.3,294.8 L11.3,316.9 L7.1,317.3 Z M11.4,262.3 L11.4,292.7 L7.2,293.2 L7.2,263 L11.4,262.3 Z" id="Shape"></path>
                    <path d="M5.1,388.6 L13.3,387.7 L13.3,329.2 L5.1,329.2 L5.1,388.6 Z M7.1,386.4 L7.1,364.4 L11.3,363.9 L11.3,386 L7.1,386.4 Z M11.4,331.2 L11.4,361.9 L7.2,362.4 L7.2,331.2 L11.4,331.2 Z" id="Shape"></path>
                </g>
            </g>
            <g id="Bud_x5F_C" transform="translate(835.000000, 123.000000)">
                <path d="M710.4,62 C595.8,70.3 557.5,42.1 557.2,41.8 L556.9,41.6 L556.5,41.6 C456.5,45.7 394.3,34.5 359.7,24.4 C325.4,14.4 310.8,3.4 308.5,1.5 L308.5,0.2 L181,76.6 L87.6,122.5 L62.4,140 L0.7,170.3 L0.7,607.3 L307.5,607.3 L308.5,607.3 L711.5,607.3 L711.5,61.9 L710.4,62 Z M230.2,72.3 L237.2,73.1 L237.2,152.9 L230.2,156.5 L230.2,72.3 Z M230.2,177 L235.7,178.4 L235.7,242.5 L230.2,244.6 L230.2,177 Z M230.2,267.1 L235.7,268 L235.7,333.7 L230.2,335.3 L230.2,267.1 Z M230.2,357.2 L235.7,358 L235.7,423.7 L230.2,424.6 L230.2,357.2 Z M230.2,446.5 L235.7,447.5 L235.7,513.9 L230.2,514.3 L230.2,446.5 Z M228.2,605.4 L2.7,605.4 L2.7,171.6 L63.4,141.8 L88.6,124.3 L182,78.4 L228.3,50.7 L228.3,605.4 L228.2,605.4 Z M238.7,605.4 L230.2,605.4 L230.2,534.2 L238.7,533.8 L238.7,605.4 Z M277.4,605.4 L240.7,605.4 L240.7,533.7 L277.4,531.9 L277.4,605.4 Z M306.5,605.4 L279.4,605.4 L279.4,531.8 L306.5,530.4 L306.5,605.4 Z M306.5,528.4 L230.2,532.2 L230.2,516.3 L306.5,510.9 L306.5,528.4 Z M237.7,513.8 L237.7,447.6 L276.4,442.4 L276.4,511 L237.7,513.8 Z M306.5,508.9 L278.4,510.9 L278.4,442.1 L306.5,439.5 L306.5,508.9 Z M306.5,437.5 L276.4,440.3 L276.4,440.3 L236.7,445.7 L235.4,445.5 L306.5,435.1 L306.5,437.5 Z M306.5,433 L230.2,444.2 L230.2,426.7 L306.5,413.7 L306.5,433 Z M237.7,423.4 L237.7,357.9 L276.4,349 L276.4,416.8 L237.7,423.4 Z M306.5,411.7 L278.4,416.5 L278.4,348.8 L306.5,349.3 L306.5,411.7 Z M306.5,347.2 L276.4,346.7 L276.4,346.9 L236.7,356.1 L234.4,355.8 L306.6,337.8 L306.6,347.2 L306.5,347.2 Z M306.5,335.7 L230.2,354.7 L230.2,337.2 L306.5,315.5 L306.5,335.7 Z M237.7,333.1 L237.7,267.8 L276.4,254.3 L276.4,322.1 L237.7,333.1 Z M306.5,313.6 L278.4,321.6 L278.4,254.2 L306.5,259.5 L306.5,313.6 Z M306.5,257.4 L277.3,251.9 L236.6,266.1 L233.1,265.5 L306.5,238.7 L306.5,257.4 Z M306.5,236.6 L230.2,264.4 L230.2,246.7 L306.5,217.2 L306.5,236.6 Z M237.7,241.7 L237.7,178.2 L276.4,161.1 L276.4,226.7 L237.7,241.7 Z M306.5,215.1 L278.4,226 L278.4,160.9 L306.5,165.6 L306.5,215.1 Z M306.5,163.5 L277.2,158.6 L236.6,176.5 L232.2,175.4 L306.5,141.2 L306.5,163.5 Z M306.5,139 L230.2,174.1 L230.2,158.7 L306.5,119.1 L306.5,139 Z M239.2,151.9 L239.2,72.8 L276.4,53.2 L276.4,132.5 L239.2,151.9 Z M306.5,117 L278.4,131.6 L278.4,52.8 L306.5,58 L306.5,117 Z M306.5,55.9 L277.2,50.5 L237.9,71.1 L232.4,70.5 L306.5,30.1 L306.5,55.9 Z M306.5,27.9 L230.2,69.5 L230.2,49.5 L306.5,3.8 L306.5,27.9 Z M308.5,30.2 C314,33 334.8,42.9 370.1,51.8 C406.6,61 466.2,70.7 545.9,66.7 L486.5,81.5 L308.4,47 L308.4,30.2 L308.5,30.2 Z M694.2,104.7 L694.2,166 C661.6,167.2 621.1,166.6 588.5,159.5 C565.6,154.5 557.3,148.6 557.2,148.6 L556.9,148.4 L556.5,148.4 C531.5,150 508.6,150.4 487.6,150 L487.6,83.3 L556.3,66.2 C558.3,67.6 567.6,73.5 588.8,78.6 C588.9,78.6 589,78.6 589.1,78.7 L589.1,78.7 L694.2,104.7 Z M618.5,83.9 C635.7,86 653.6,86.8 670.4,86.8 C684,86.8 697,86.3 708.4,85.6 L694.9,102.9 L618.5,83.9 Z M308.5,48.9 L485.6,83.2 L485.6,149.8 C433.7,148.6 394.5,142.4 368.2,136.4 C331.4,128 311.8,118.5 308.5,116.8 L308.5,48.9 L308.5,48.9 Z M308.5,119.2 C313.8,121.8 333.3,130.7 367.6,138.5 C404.8,147 467.6,155.9 555.5,150.5 L555.5,169.4 C471.2,174.7 408.5,166.2 370.7,158 C333.1,149.9 312.1,140.6 308.5,139 L308.5,119.2 Z M308.5,141.2 C313.9,143.6 334.8,152.3 370.2,159.9 C406.1,167.6 464.4,175.7 542.1,172.1 L486.6,182.9 L308.5,155.1 L308.5,141.2 L308.5,141.2 Z M308.5,157.2 L486.4,185 L486.6,185 L556.3,171.4 C558.2,172.4 567.5,177.2 588.8,181.3 C588.9,181.3 589,181.3 589.1,181.4 L589.1,181.4 L693.1,202.6 L693.1,253.6 C640.7,255.7 607.5,252.6 588.3,249.3 C565.3,245.4 557.1,240.7 557,240.6 L556.7,240.4 L556.4,240.4 C468.2,245.9 405.3,238.7 368.1,231.6 C331.5,224.7 311.9,216.5 308.5,215 L308.5,157.2 L308.5,157.2 Z M693.6,200.6 L618.6,185.3 C630.9,186.4 645.7,187.1 663.2,187.1 C676.5,187.1 691.5,186.7 708.1,185.6 L693.6,200.6 Z M692.9,290 L692.9,341.8 C587.5,346.3 557.3,332.2 557,332 L556.8,331.9 L556.5,331.9 C531.6,333.5 508.7,334.2 487.6,334.2 L487.6,276.5 L556.4,262.4 C558.4,263.3 568.3,267.7 591.1,271 L692.9,290 Z M616.3,273.6 C627.5,274.4 640.6,274.9 655.8,274.9 C671,274.9 688.3,274.4 707.9,273.2 L693.6,288.1 L616.3,273.6 Z M693.4,370.6 L693.4,429.8 C587.5,434.6 557.3,423.1 557,422.9 L556.8,422.8 L556.6,422.8 C531.6,423.7 508.6,424.1 487.7,424.2 L487.7,362.5 L556.5,353.9 C558.1,354.5 567.3,357.6 589,360 C589.8,360.1 590.5,360.2 591.3,360.2 L591.3,360.2 L693.4,370.6 Z M634.4,362.7 C638.1,362.8 641.9,362.8 645.9,362.8 C662.9,362.8 683.1,362.2 706.7,360.8 L694.2,368.7 L634.4,362.7 Z M308.5,217.3 C313.7,219.5 333.2,227.1 367.7,233.6 C404.9,240.7 467.6,247.9 555.6,242.5 L555.6,260.3 C401.1,270.1 316.4,239.6 308.6,236.6 L308.6,217.3 L308.5,217.3 Z M308.5,238.8 C313.8,240.8 334.7,248.1 370.2,254.3 C406.2,260.6 464.7,267.1 542.8,263.1 L486.5,274.6 L308.4,246.8 L308.4,238.8 L308.5,238.8 Z M308.5,248.9 L485.6,276.5 L485.6,334.200406 C372.1,334.3 315,315.9 308.5,313.6 L308.5,248.9 Z M308.5,315.7 C317.7,318.8 374.5,336.2 484.4,336.2 C506,336.2 529.8,335.5 555.6,333.9 L555.6,352 C394.2,357.5 316.6,337.9 308.6,335.7 L308.6,315.7 L308.5,315.7 Z M308.5,337.8 C318.7,340.5 390.5,357.8 535.7,354.6 L486.6,360.7 L308.5,342.8 L308.5,337.8 L308.5,337.8 Z M308.5,344.8 L485.6,362.6 L485.6,424.3 C433.8,424.3 394.6,422 368.2,419.6 C332.1,416.4 312.5,412.5 308.5,411.7 L308.5,344.8 L308.5,344.8 Z M308.5,413.8 C313.4,414.8 333,418.5 367.9,421.6 C405.1,424.9 467.8,428.2 555.5,425 L555.5,442.7 C420.9,444.8 335.7,437.4 308.5,433 L308.5,413.8 Z M308.5,435 C318,436.4 386.5,445.8 524.9,445 L484.8,448 L308.5,437.4 L308.5,435 L308.5,435 Z M308.5,439.4 L484.8,450 L484.9,450 L556.5,444.7 C565.3,447 589,450.2 629.1,451.5 L693,454.9 L693,518.7 C616.7,521.9 571,518.3 556.8,515.7 L556.7,515.7 L556.6,515.7 C397.2,521.6 317.4,510.5 308.6,509.1 L308.6,439.4 L308.5,439.4 Z M676.1,451.9 C683.7,451.8 691.6,451.7 699.9,451.5 L693.8,452.8 L676.1,451.9 Z M308.5,511 C318.9,512.5 398.4,523.4 555.5,517.6 L555.5,534.9 C420.9,537 335.7,531.7 308.5,528.5 L308.5,511 Z M709.5,605.4 L308.5,605.4 L308.5,530.5 C336.1,533.7 421.6,539.1 556.5,536.9 C558,537.1 579.9,539.6 635,539.6 C655.2,539.6 679.8,539.3 709.5,538.3 L709.5,605.4 Z M709.5,536.4 C605.6,539.6 563.9,535.7 557.6,535.1 L557.6,517.9 C568.6,519.7 594.9,522 636.1,522 C656.8,522 681.3,521.4 709.5,520 L709.5,536.4 Z M709.5,517.8 C704.5,518.1 699.7,518.3 694.9,518.5 L694.9,454.7 L709.5,451.5 L709.5,517.8 Z M709.5,449.2 C677.8,450.2 651.2,450.1 629.4,449.4 L594,447.5 L594,447.5 C575.6,446.1 563.6,444.2 557.6,442.8 L557.6,425.3 C563.1,427.1 586,433 644.2,433 C662.3,433 683.9,432.4 709.5,431 L709.5,449.2 L709.5,449.2 Z M709.5,429.1 C704.7,429.4 700,429.6 695.4,429.8 L695.4,370.3 L709.5,361.4 L709.5,429.1 Z M709.5,358.6 C601.6,365.5 562.8,354 557.6,352.3 L557.6,334.4 C563.5,336.7 588.4,344.7 652.8,344.7 C669.1,344.7 687.9,344.2 709.6,343 L709.6,358.6 L709.5,358.6 Z M709.5,340.9 C704.5,341.2 699.6,341.4 694.9,341.6 L694.9,289.5 L709.5,274.4 L709.5,340.9 Z M709.5,271.1 C649.1,275 610.9,271.9 589.5,268.6 C569.3,265.5 559.8,261.7 557.6,260.7 L557.6,243.2 C563.9,246.2 590.4,256.3 659.9,256.3 C674.5,256.3 691,255.8 709.5,254.8 L709.5,271.1 L709.5,271.1 Z M709.5,252.8 C704.6,253.1 699.8,253.3 695.2,253.5 L695.2,201.8 L709.5,187 L709.5,252.8 Z M709.5,183.6 C600.7,190.5 562.2,172.2 557.6,169.8 L557.6,151.3 C564.2,155.2 592.6,168.6 667.5,168.6 C680.1,168.6 694.1,168.2 709.5,167.3 L709.5,183.6 Z M709.5,165.3 C705.3,165.5 700.8,165.8 696.2,165.9 L696.2,104.2 L709.5,87.2 L709.5,165.3 Z M709.5,83.5 C593.6,90.9 557.5,64.6 557.2,64.3 L556.9,64.1 L556.5,64.1 C471.8,69.6 408.7,59.4 370.8,49.9 C333.1,40.4 312,29.8 308.6,28 L308.6,4.2 C313.2,7.7 328.1,17.3 359,26.4 C421.8,44.8 500.9,46 556.3,43.8 C558.1,45.1 567.8,51.5 589.7,57.1 C629,67.2 676.4,66.6 709.6,64.2 L709.6,83.5 L709.5,83.5 Z" id="Shape"></path>
            </g>
            <g id="Bud_x5F_C_x5F_okna" transform="translate(856.000000, 165.000000)">
                <g id="Group">
                    <polygon id="Path" points="427.2 107.2 429.2 107.2 429.2 45 443.9 47.3 443.9 108.3 445.9 108.3 445.9 47.6 458.8 49.7 458.8 108.8 460.8 108.8 460.8 48 427.2 42.6"></polygon>
                    <polygon id="Path" points="308.6 85 310.6 85 310.6 22.2 363.4 32.5 363.4 99.1 365.4 99.1 365.4 32.9 416.6 42.9 416.6 106.4 418.6 106.4 418.6 41.2 308.6 19.7"></polygon>
                    <rect id="Rectangle" x="464.6" y="142.2" width="2" height="59.4"></rect>
                    <polygon id="Path" points="427.2 200.2 429.2 200.2 429.2 146.7 443.9 149.1 443.9 200.9 445.9 200.9 445.9 149.4 458.8 151.5 458.8 201.4 460.8 201.4 460.8 149.8 427.2 144.4"></polygon>
                    <polygon id="Path" points="308.6 181.8 310.6 181.8 310.6 123.9 363.4 134.3 363.4 193.7 365.4 193.7 365.4 134.6 416.6 144.7 416.6 199.4 418.6 199.4 418.6 143 308.6 121.5"></polygon>
                    <polygon id="Path" points="530.8 107.6 532.8 107.6 532.8 45 544.8 47.3 544.8 112.4 546.8 112.4 546.8 47.7 562.5 50.7 562.5 117.7 564.5 117.7 564.5 49.1 530.8 42.6"></polygon>
                    <polygon id="Path" points="569.4 50.1 569.4 119.2 571.4 119.2 571.4 52.5 617.5 61.5 617.5 124.8 619.5 124.8 619.5 61.9 668 71.3 668 125.2 670 125.2 670 69.6"></polygon>
                    <polygon id="Path" points="530.8 199.8 532.8 199.8 532.8 148.2 544.8 150.5 544.8 203.6 546.8 203.6 546.8 150.9 562.5 153.9 562.5 207.7 564.5 207.7 564.5 152.3 530.8 145.8"></polygon>
                    <polygon id="Path" points="569.4 208.8 571.4 208.8 571.4 155.7 617.5 164.7 617.5 212.5 619.5 212.5 619.5 165.1 668 174.5 668 212.9 670 212.9 670 172.8 569.4 153.3"></polygon>
                    <polygon id="Path" points="530.8 291.1 532.8 291.1 532.8 242.5 544.8 243.2 544.8 293.9 546.8 293.9 546.8 243.4 562.5 244.3 562.5 297.9 564.5 297.9 564.5 242.4 530.8 240.4"></polygon>
                    <polygon id="Path" points="569.4 298.5 571.4 298.5 571.4 245.9 617.5 249.8 617.5 301.5 619.5 301.5 619.5 250 668 254.2 668 300.8 670 300.8 670 252.4 569.4 243.7"></polygon>
                    <polygon id="Path" points="530.8 382.1 532.8 382.1 532.8 331.1 544.8 331.8 544.8 384.4 546.8 384.4 546.8 331.9 562.5 332.8 562.5 387.2 564.5 387.2 564.5 330.9 530.8 329"></polygon>
                    <polygon id="Path" points="569.4 388 571.4 388 571.4 334.4 617.5 336.6 617.5 390.1 619.5 390.1 619.5 336.7 668 339.1 668 389.4 670 389.4 670 337.2 569.4 332.3"></polygon>
                    <polygon id="Path" points="530.8 474.7 532.8 474.7 532.8 417.2 544.8 417.9 544.8 476.1 546.8 476.1 546.8 418 562.5 418.9 562.5 477.4 564.5 477.4 564.5 417 530.8 415.1"></polygon>
                    <polygon id="Path" points="569.4 477.8 571.4 477.8 571.4 419 617.5 421.3 617.5 478.9 619.5 478.9 619.5 421.4 668 423.8 668 477.4 670 477.4 670 421.9 569.4 416.9"></polygon>
                    <polygon id="Path" points="530.8 564.4 532.8 564.4 532.8 502.5 544.8 503.2 544.8 564.4 546.8 564.4 546.8 503.3 562.5 504.2 562.5 564.4 564.5 564.4 564.5 502.3 530.8 500.4"></polygon>
                    <polygon id="Path" points="569.4 564.4 571.4 564.4 571.4 504.3 617.5 506.6 617.5 564.4 619.5 564.4 619.5 506.7 668 509.1 668 564.4 670 564.4 670 507.2 569.4 502.2"></polygon>
                    <polygon id="Path" points="427.2 292.6 429.2 292.6 429.2 238.4 443.9 240.8 443.9 292.5 445.9 292.5 445.9 241.1 458.8 243.2 458.8 293.1 460.8 293.1 460.8 241.5 427.2 236.1"></polygon>
                    <polygon id="Path" points="308.6 279 310.6 279 310.6 215.6 363.4 225.9 363.4 287.9 365.4 287.9 365.4 226.3 416.6 236.3 416.6 292.2 418.6 292.2 418.6 234.7 308.6 213.2"></polygon>
                    <polygon id="Path" points="427.2 382.6 429.2 382.6 429.2 328.3 443.9 328.7 443.9 382.6 445.9 382.6 445.9 328.8 458.8 329.1 458.8 383.1 460.8 383.1 460.8 327.2 427.2 326.2"></polygon>
                    <polygon id="Path" points="308.6 374.4 310.6 374.4 310.6 316.2 363.4 321.3 363.4 380 365.4 380 365.4 321.5 416.6 326.4 416.6 382.2 418.6 382.2 418.6 324.6 308.6 314"></polygon>
                    <polygon id="Path" points="427.2 476.5 429.2 476.5 429.2 416.6 443.9 417 443.9 476.4 445.9 476.4 445.9 417.1 458.8 417.4 458.8 476.1 460.8 476.1 460.8 415.5 427.2 414.5"></polygon>
                    <polygon id="Path" points="308.6 470.7 310.6 470.7 310.6 410 363.4 413 363.4 474.5 365.4 474.5 365.4 413.1 416.6 416 416.6 476.1 418.6 476.1 418.6 414.1 308.6 407.9"></polygon>
                    <polygon id="Path" points="427.2 564.1 429.2 564.1 429.2 504.2 443.9 504.7 443.9 564 445.9 564 445.9 504.7 458.8 505.1 458.8 564.4 460.8 564.4 460.8 503.2 427.2 502.2"></polygon>
                    <polygon id="Path" points="308.6 564.4 310.6 564.4 310.6 497.7 363.4 500.6 363.4 564.4 365.4 564.4 365.4 500.8 416.6 503.6 416.6 563.7 418.6 563.7 418.6 501.7 308.6 495.6"></polygon>
                    <rect id="Rectangle" x="462.9" y="407" width="2" height="69.5"></rect>
                    <path d="M0.2,209.1 L44.2,189.4 L44.2,115.2 L0.2,135.2 L0.2,209.1 Z M2.2,137 L8,137.8 L8,203.4 L2.2,206 L2.2,137 Z M9.9,156.2 L24,149.7 L24,196.4 L9.9,202.7 L9.9,156.2 Z M42.2,148.3 L26,147.2 L26,131.3 L42.2,132.4 L42.2,148.3 Z M42.2,130.3 L28.5,129.4 L42.2,123.4 L42.2,130.3 Z M24,147.4 L9.9,153.9 L9.9,137.6 L24,131.4 L24,147.4 Z M26,195.4 L26,149.1 L42.2,150.2 L42.2,188.1 L26,195.4 Z M42.2,121.1 L24.2,129 L24,129 L24,129.1 L8.8,135.8 L4.7,135.2 L42.2,118.2 L42.2,121.1 Z" id="Shape"></path>
                    <path d="M0.2,278.6 L44.2,263.5 L44.2,198.3 L0.2,216.9 L0.2,278.6 Z M2.2,218.8 L8,220.1 L8,273.9 L2.2,275.9 L2.2,218.8 Z M9.9,219.9 L24,214.4 L24,268.3 L9.9,273.1 L9.9,219.9 Z M26,267.6 L26,214.7 L42.2,217.2 L42.2,262 L26,267.6 Z M27.6,213 L42.2,207.3 L42.2,215.3 L27.6,213 Z M42.2,205.1 L8.9,218.2 L4.5,217.2 L42.2,201.2 L42.2,205.1 Z" id="Shape"></path>
                    <path d="M0.2,351 L44.2,339 L44.2,273.8 L0.2,289.3 L0.2,351 Z M2.2,291.2 L8,292.2 L8,346.8 L2.2,348.4 L2.2,291.2 Z M9.9,292.1 L24,287.4 L24,342.4 L9.9,346.2 L9.9,292.1 Z M26,341.9 L26,288.5 L42.2,292 L42.2,337.5 L26,341.9 Z M26.7,286.6 L42.2,281.4 L42.2,289.9 L26.7,286.6 Z M42.2,279.3 L8.9,290.4 L5.1,289.7 L42.2,276.6 L42.2,279.3 Z" id="Shape"></path>
                    <path d="M0.2,421.1 L44.2,413.2 L44.2,349.1 L0.2,359.4 L0.2,421.1 Z M2.2,361.6 L8,363.2 L8,417.8 L2.2,418.8 L2.2,361.6 Z M9.9,363.2 L24,360.3 L24,414.9 L9.9,417.4 L9.9,363.2 Z M26,414.5 L26,360.8 L42.2,366 L42.2,411.5 L26,414.5 Z M28,359.4 L42.1,356.4 L42.1,363.9 L28,359.4 Z M42.2,354.4 L24.2,358.2 L24,358.1 L24,358.2 L8.9,361.4 L5.2,360.4 L42.1,351.7 L42.1,354.4 L42.2,354.4 Z" id="Shape"></path>
                    <path d="M0.2,494.5 L44.2,490.8 L44.2,424.3 L0.2,431.5 L0.2,494.5 Z M2.2,433.7 L8,435.3 L8,491.9 L2.2,492.4 L2.2,433.7 Z M9.9,435.3 L24,433.2 L24,490.5 L9.9,491.7 L9.9,435.3 Z M26,490.3 L26,433.7 L42.2,438.2 L42.2,489 L26,490.3 Z M29,432.5 L42.2,430.5 L42.2,436.1 L29,432.5 Z M42.2,428.5 L24.3,431.2 L24.1,431.1 L24.1,431.2 L9.1,433.5 L6,432.7 L42.3,426.8 L42.3,428.5 L42.2,428.5 Z" id="Shape"></path>
                    <path d="M0.2,565.4 L44.2,565.3 L44.2,499.2 L0.2,501.8 L0.2,565.4 Z M2.2,504.3 L8,506.5 L8,563.5 L2.2,563.5 L2.2,504.3 Z M9.9,506.7 L24,506 L24,563.3 L9.9,563.3 L9.9,506.7 Z M26,563.4 L26,506.9 L42.2,513 L42.2,563.4 L26,563.4 Z M28.9,505.8 L42.1,505.2 L42.1,510.8 L28.9,505.8 Z M42.2,503.2 L24.2,504 L24,503.9 L24,504 L9.1,504.7 L6,503.5 L42.2,501.3 L42.2,503.2 Z" id="Shape"></path>
                    <path d="M65.8,180.4 L92.3,168 L92.3,86.9 L65.8,100.8 L65.8,180.4 Z M67.8,102.5 L74.7,102.5 L74.7,174.1 L67.8,177.3 L67.8,102.5 Z M90.3,109.7 L76.6,117.4 L76.6,102.2 L90.3,95.5 L90.3,109.7 Z M76.6,119.6 L84.7,115.1 L84.7,169.4 L76.6,173.2 L76.6,119.6 Z M86.7,168.5 L86.7,114 L90.3,112 L90.3,166.8 L86.7,168.5 Z M90.3,93.2 L75.4,100.5 L70.8,100.5 L90.3,90.3 L90.3,93.2 Z" id="Shape"></path>
                    <path d="M137.7,148.2 L137.5,64.3 L111,78.2 L111.2,159.5 L137.7,148.2 Z M135.6,87 L121.9,94.7 L121.9,79.5 L135.6,72.8 L135.6,87 Z M119.8,79.8 L120,153.5 L113.1,156.4 L112.9,79.7 L119.8,79.7 L119.8,79.8 Z M122,152.7 L121.9,96.9 L135.6,89.2 L135.7,146.8 L122,152.7 Z M135.5,70.5 L120.6,77.8 L116,77.8 L135.5,67.6 L135.5,70.5 Z" id="Shape"></path>
                    <path d="M159.7,138.5 L187,126.1 L187,38.7 L159.7,53.7 L159.7,138.5 Z M161.7,55.5 L169.8,56.5 L169.8,131.7 L161.7,135.4 L161.7,55.5 Z M185,63.1 L181.4,65 L171.8,64.5 L171.8,56.3 L185,49.2 L185,63.1 L185,63.1 Z M171.8,66.5 L180.6,66.9 L180.6,126.9 L171.8,130.9 L171.8,66.5 Z M182.6,126 L182.6,66.6 L185,65.3 L185,124.9 L182.6,126 Z M185,46.9 L170.6,54.6 L163.9,53.8 L185,42.2 L185,46.9 L185,46.9 Z" id="Shape"></path>
                    <path d="M65.8,256.6 L92.3,247.9 L92.3,177.5 L65.8,188.5 L65.8,256.6 Z M67.8,190.1 L74.7,190.3 L74.7,251.5 L67.8,253.8 L67.8,190.1 Z M90.3,196.8 L76.6,202.9 L76.6,190.1 L90.3,184.9 L90.3,196.8 Z M76.6,205.1 L84.7,201.5 L84.7,248.3 L76.6,250.9 L76.6,205.1 Z M86.7,247.6 L86.7,200.6 L90.3,199 L90.3,246.4 L86.7,247.6 Z M90.3,182.7 L75.5,188.4 L71.4,188.3 L90.3,180.5 L90.3,182.7 L90.3,182.7 Z" id="Shape"></path>
                    <path d="M137.7,232 L137.5,159.8 L111,170.8 L111.2,240.7 L137.7,232 Z M135.6,179.1 L121.9,185.2 L121.9,172.4 L135.6,167.2 L135.6,179.1 Z M119.9,172.7 L120.1,235.7 L113.2,238 L113,172.5 L119.9,172.7 Z M122,235 L121.9,187.3 L135.6,181.2 L135.7,230.5 L122,235 Z M135.5,165 L120.7,170.7 L116.6,170.6 L135.5,162.8 L135.5,165 Z" id="Shape"></path>
                    <path d="M159.7,225.3 L187,215.7 L187,139.7 L159.7,151.6 L159.7,225.3 Z M161.7,153.4 L169.8,154.6 L169.8,219.7 L161.7,222.5 L161.7,153.4 Z M185,160.4 L181.4,161.9 L171.8,161.1 L171.8,154.4 L185,148.8 L185,160.4 L185,160.4 Z M171.8,163.1 L180.6,163.8 L180.6,215.9 L171.8,219 L171.8,163.1 Z M182.6,215.2 L182.6,163.6 L185,162.6 L185,214.4 L182.6,215.2 Z M185,146.6 L170.6,152.6 L164.3,151.7 L185,142.7 L185,146.6 Z" id="Shape"></path>
                    <path d="M65.8,334.6 L92.3,328.3 L92.3,257.9 L65.8,266.5 L65.8,334.6 Z M67.8,268.4 L74.7,269.3 L74.7,330.5 L67.8,332.1 L67.8,268.4 Z M90.3,277.1 L76.6,282 L76.6,269.1 L90.3,265.1 L90.3,277.1 Z M76.6,284.1 L84.7,281.2 L84.7,328 L76.6,329.9 L76.6,284.1 Z M86.7,327.6 L86.7,280.5 L90.3,279.2 L90.3,326.7 L86.7,327.6 Z M90.3,263 L75.6,267.3 L71.4,266.8 L90.3,260.7 L90.3,263 Z" id="Shape"></path>
                    <path d="M137.7,316.4 L137.5,244.2 L111,252.8 L111.2,322.7 L137.7,316.4 Z M135.6,263.4 L121.9,268.3 L121.9,255.5 L135.6,251.5 L135.6,263.4 Z M119.8,255.6 L120,318.6 L113.1,320.2 L112.9,254.7 L119.8,255.6 Z M122,318.1 L121.9,270.4 L135.6,265.5 L135.7,314.8 L122,318.1 Z M135.5,249.3 L120.8,253.6 L116.6,253.1 L135.5,247 L135.5,249.3 Z" id="Shape"></path>
                    <path d="M159.7,311.7 L187,304.6 L187,228.6 L159.7,238 L159.7,311.7 Z M161.7,240 L169.8,241.9 L169.8,307 L161.7,309.1 L161.7,240 Z M185,249.1 L181.5,250.2 L171.8,248.6 L171.8,241.8 L185,237.4 L185,249.1 Z M171.8,250.6 L180.6,252.1 L180.6,304.2 L171.8,306.5 L171.8,250.6 Z M182.6,303.7 L182.6,252 L185,251.2 L185,303 L182.6,303.7 Z M185,235.3 L170.7,240 L164.3,238.5 L185,231.4 L185,235.3 Z" id="Shape"></path>
                    <path d="M65.8,410.2 L92.3,405.4 L92.3,336.1 L65.8,342.1 L65.8,410.2 Z M67.8,344.1 L74.7,345.6 L74.7,406.5 L67.8,407.7 L67.8,344.1 Z M90.3,355 L76.6,357.6 L76.6,345.6 L90.3,342.9 L90.3,355 Z M76.6,359.7 L84.7,358.1 L84.7,404.7 L76.6,406.2 L76.6,359.7 Z M86.7,404.4 L86.7,357.8 L90.3,357.1 L90.3,403.7 L86.7,404.4 Z M90.3,341 L75.7,343.8 L71.4,342.8 L90.4,338.5 L90.4,341 L90.3,341 Z" id="Shape"></path>
                    <path d="M137.7,398 L137.5,323.9 L111,329.9 L111.2,402.8 L137.7,398 Z M135.6,345.8 L121.9,348.4 L121.9,333.4 L135.6,330.7 L135.6,345.8 Z M119.8,333.5 L120,399.2 L113.1,400.4 L112.9,331.9 L119.8,333.5 Z M122,398.8 L121.9,350.5 L135.6,347.9 L135.7,396.4 L122,398.8 Z M135.5,328.8 L120.8,331.6 L116.5,330.6 L135.5,326.3 L135.5,328.8 Z" id="Shape"></path>
                    <path d="M159.7,395.5 L187,391.1 L187,310.2 L159.7,316.9 L159.7,395.5 Z M161.7,319.1 L169.8,321.8 L169.8,391.9 L161.7,393.2 L161.7,319.1 Z M185,336.5 L181.6,337.2 L171.8,334.6 L171.8,321.8 L185,318.7 L185,336.5 Z M171.8,336.7 L180.6,339.1 L180.6,390.2 L171.8,391.6 L171.8,336.7 Z M182.6,389.8 L182.6,339 L185,338.5 L185,389.4 L182.6,389.8 Z M185,316.7 L170.8,320 L164.3,317.8 L185,312.7 L185,316.7 Z" id="Shape"></path>
                    <path d="M65.8,489 L92.3,487.1 L92.3,416.8 L65.8,420.9 L65.8,489 Z M67.8,423.1 L74.7,425.1 L74.7,486.3 L67.8,486.8 L67.8,423.1 Z M90.3,435.6 L76.6,437.3 L76.6,425.3 L90.3,423.6 L90.3,435.6 Z M76.6,439.3 L84.7,438.3 L84.7,485.6 L76.6,486.2 L76.6,439.3 Z M86.7,485.5 L86.7,438 L90.3,437.6 L90.3,485.2 L86.7,485.5 Z M90.3,421.5 L75.7,423.3 L71.3,422 L90.2,419 L90.2,421.5 L90.3,421.5 Z" id="Shape"></path>
                    <path d="M137.7,483.6 L137.5,410.6 L111,414.7 L111.2,485.4 L137.7,483.6 Z M135.6,429.5 L121.9,431.2 L121.9,419.2 L135.6,417.5 L135.6,429.5 Z M119.8,419 L120,482.9 L113.1,483.4 L113,417 L119.8,419 Z M122,482.7 L121.8,433.1 L135.5,431.4 L135.6,481.7 L122,482.7 Z M135.5,415.4 L120.9,417.2 L116.5,415.9 L135.5,412.9 L135.5,415.4 Z" id="Shape"></path>
                    <path d="M159.7,481.8 L187,479.7 L187,403.4 L159.7,408.3 L159.7,481.8 Z M161.7,410.5 L169.8,413.7 L169.8,479 L161.7,479.6 L161.7,410.5 Z M185,423.5 L181.7,424 L171.8,420.7 L171.8,413.9 L185,411.7 L185,423.5 Z M171.8,422.8 L180.6,425.8 L180.6,478.2 L171.8,478.9 L171.8,422.8 Z M182.6,478 L182.6,425.9 L185,425.5 L185,477.8 L182.6,478 Z M185,409.7 L170.9,412 L164.3,409.4 L185,405.7 L185,409.7 L185,409.7 Z" id="Shape"></path>
                    <path d="M65.8,565.3 L92.3,565.4 L92.3,495.9 L65.8,497.3 L65.8,565.3 Z M67.8,499.7 L74.7,502.4 L74.7,563.3 L67.8,563.3 L67.8,499.7 Z M90.3,514.5 L76.6,514.8 L76.6,502.8 L90.3,502.5 L90.3,514.5 Z M76.6,516.7 L84.7,516.5 L84.7,563.3 L76.6,563.3 L76.6,516.7 Z M86.7,563.4 L86.7,516.6 L90.3,516.5 L90.3,563.4 L86.7,563.4 Z M90.3,500.4 L75.8,500.7 L71.4,498.9 L90.3,497.9 L90.3,500.4 Z" id="Shape"></path>
                    <path d="M111,495.9 L111.2,565.4 L137.7,565.4 L137.5,494.5 L111,495.9 Z M135.6,513.1 L121.9,513.4 L121.9,501.4 L135.6,501.1 L135.6,513.1 Z M135.5,499 L121,499.3 L116.6,497.5 L135.5,496.5 L135.5,499 Z M113,498.3 L119.9,501 L120.1,563.4 L113.2,563.4 L113,498.3 Z M122,563.4 L121.8,515.4 L135.5,515.1 L135.6,563.4 L122,563.4 Z" id="Shape"></path>
                    <path d="M159.7,565.4 L187,565.4 L187,492.3 L159.7,494.3 L159.7,565.4 Z M161.7,496.9 L169.8,501 L169.8,563.4 L161.7,563.4 L161.7,496.9 Z M185,512.3 L181.8,512.4 L171.8,508 L171.8,501.3 L185,500.5 L185,512.3 Z M171.8,510.2 L180.6,514.1 L180.6,563.4 L171.8,563.4 L171.8,510.2 Z M182.6,563.4 L182.6,514.4 L185,514.3 L185,563.4 L182.6,563.4 Z M185,498.5 L171,499.3 L164.4,496 L185,494.5 L185,498.5 Z" id="Shape"></path>
                    <polygon id="Path" points="219 110.6 221 110.6 221 36.9 245.3 24.7 245.3 96.4 247.3 96.4 247.3 21.5 219 35.6"></polygon>
                    <polygon id="Path" points="219 199.2 221 199.2 221 141 245.3 130.4 245.3 189.4 247.3 189.4 247.3 127.3 219 139.7"></polygon>
                    <polygon id="Path" points="219 290.9 221 290.9 221 232.7 245.3 225 245.3 284.2 247.3 284.2 247.3 222.2 219 231.2"></polygon>
                    <polygon id="Path" points="219 381.3 221 381.3 221 323.2 245.3 317.7 245.3 377 247.3 377 247.3 315.2 219 321.6"></polygon>
                    <polygon id="Path" points="219 472.7 221 472.7 221 410.9 245.3 408.8 245.3 470.7 247.3 470.7 247.3 406.7 219 409"></polygon>
                    <polygon id="Path" points="221.5 564.6 223.5 564.6 223.5 502.8 245.3 502.3 245.3 564.2 247.3 564.2 247.3 500.3 221.5 500.8"></polygon>
                    <rect id="Rectangle" x="534.6" y="0.6" width="2" height="22.5"></rect>
                </g>
            </g>
            <g id="Bud_x5F_B" transform="translate(674.000000, 276.000000)">
                <g id="Group">
                    <path d="M139.7,65.6 L133.7,64.3 L133.7,40.8 L132.7,40.8 C119.6,40.8 114.4,36 113.4,34.8 L113.4,17.2 L80,14.1 L80,8 L1,0.6 L0.8,2.6 L78,9.8 L78,452.6 L1,452.6 L1,454.6 L78.9,454.6 L79.9,454.6 L113.3,454.6 L113.3,453.2 L133.6,453.2 L133.6,451 L139.6,451 L139.6,65.6 L139.7,65.6 Z M131.6,378.8 C120.8,378.9 115.3,377.6 113.3,376.9 L113.3,328.1 C115.7,328.8 120.9,329.9 130,329.9 C130.5,329.9 131.1,329.9 131.6,329.9 L131.6,378.8 Z M95.2,120.9 C97.1,129.3 107.9,130.2 111.4,130.2 L111.4,164.9 L80,163.7 L80,109.3 L104.7,110.1 C101.5,111.2 98.1,112.8 96.3,115.4 C95.1,117.1 94.7,118.9 95.2,120.9 Z M111.4,166.9 L111.4,176.8 L80,176 L80,165.7 L111.4,166.9 Z M103.1,178.6 C100.1,179.5 97.1,180.9 95.8,182.9 C95,184.1 94.8,185.4 95.2,186.8 C97.1,193.3 107.9,194 111.4,194.1 L111.4,232.7 L80,231.5 L80,178 L103.1,178.6 Z M111.4,179 L111.4,192.1 C108.2,192 98.7,191.4 97.1,186.3 C96.9,185.5 97,184.8 97.4,184.1 C99.5,181.1 107.4,179.5 111.4,179 Z M111.4,256.6 C106.1,256.6 98.3,255.5 97.1,252.5 C97,252.2 97,251.9 97.2,251.6 C98.5,249.5 106.2,248.1 111.4,247.7 L111.4,256.6 Z M111.4,234.8 L111.4,245.6 L80,245 L80,233.5 L111.4,234.8 Z M80,247 L101.2,247.4 C98.6,248.1 96.4,249.2 95.5,250.6 C95,251.4 94.9,252.4 95.3,253.3 C97.3,258.2 107.9,258.6 111.4,258.7 L111.4,301.2 L80,300.9 L80,247 L80,247 Z M111.4,322.6 C106.1,322.6 98.3,321.7 97.1,319.3 C97,319.1 97,319.1 97.1,319 C98,317.5 105,316.2 111.4,315.8 L111.4,322.6 Z M111.4,128 L111.4,128 C111.4,128 111.4,128 111.4,128 L111.4,128.2 C108.3,128.1 98.7,127.3 97.2,120.4 C96.9,118.9 97.1,117.7 98,116.5 C100.7,112.6 108.5,111 111.5,110.5 L111.5,115.2 L111.5,115.2 C111.5,115.2 111.5,115.2 111.5,115.2 L111.5,128 L111.4,128 Z M111.4,108.3 L80,107.3 L80,96.1 L111.4,97.3 L111.4,108.3 Z M111.4,303.1 L111.4,313.7 L80,313.2 L80,302.7 L111.4,303.1 Z M80,315.3 L99.8,315.6 C96.4,316.6 95.5,317.8 95.3,318.1 C94.9,318.8 94.9,319.6 95.3,320.3 C95.7,321 98.2,324.7 111.1,324.7 C111.2,324.7 111.3,324.7 111.4,324.7 L111.4,370.2 L80,369.9 L80,315.3 L80,315.3 Z M131.6,327.8 C120.8,327.9 115.3,326.6 113.3,325.9 L113.3,314.6 C115.7,315.3 120.9,316.4 130,316.4 C130.5,316.4 131.1,316.4 131.6,316.4 L131.6,327.8 Z M131.6,314.4 C120.8,314.5 115.3,313.2 113.3,312.5 L113.3,261.7 C115.7,262.4 120.9,263.5 130,263.5 C130.5,263.5 131.1,263.5 131.6,263.5 L131.6,314.4 Z M131.6,261.5 C120.8,261.6 115.3,260.3 113.3,259.6 L113.3,250.2 C115.7,250.9 120.9,252 130,252 C130.5,252 131.1,252 131.6,252 L131.6,261.5 Z M131.6,250.1 C120.8,250.2 115.3,248.9 113.3,248.2 L113.3,197.6 C115.7,198.3 120.9,199.4 130,199.4 C130.5,199.4 131.1,199.4 131.6,199.4 L131.6,250.1 Z M131.6,197.3 C120.8,197.4 115.3,196.1 113.3,195.4 L113.3,183 C115.7,183.7 120.9,184.8 130,184.8 C130.5,184.8 131.1,184.8 131.6,184.8 L131.6,197.3 Z M131.6,182.9 C120.8,183 115.3,181.7 113.3,181 L113.3,129.4 C116,131 121.5,133.3 131.3,133.3 C131.4,133.3 131.5,133.3 131.6,133.3 L131.6,182.9 Z M131.6,131.4 C120.4,131.5 115,128.3 113.3,127.1 L113.3,116.7 C116,118.3 121.5,120.6 131.3,120.6 C131.4,120.6 131.5,120.6 131.6,120.6 L131.6,131.4 Z M131.6,118.6 C120.4,118.7 115,115.5 113.3,114.3 L113.3,52.9 C115.7,54 121.2,56.1 131.6,57.5 L131.6,118.6 Z M111.4,53.2 C108.3,53.1 98.7,52.2 97.2,44.1 C96.8,42.1 97.2,40.4 98.3,38.8 C101.3,34.6 108.6,32.8 111.4,32.3 L111.4,53.2 L111.4,53.2 Z M96.6,37.7 C95.2,39.7 94.7,42 95.1,44.5 C96,49.2 99.3,52.6 104.7,54.2 C107.4,55 109.9,55.2 111.3,55.2 L111.3,95.3 L79.9,94.1 L79.9,30.9 L105.4,31.9 C102.2,33 98.6,34.8 96.6,37.7 Z M80,371.9 L111.4,372.2 L111.4,384.4 L80,383.9 L80,371.9 Z M113.4,379 C115.8,379.7 121,380.8 130.1,380.8 C130.6,380.8 131.2,380.8 131.7,380.8 L131.7,389.8 C120.9,389.9 115.4,388.6 113.4,387.9 L113.4,379 Z M131.6,42.8 L131.6,55.5 C120,53.9 114.7,51.5 113.3,50.7 L113.3,37.6 C115.9,39.6 121.4,42.6 131.6,42.8 Z M111.4,19.1 L111.4,30 L80,28.8 L80,16.2 L111.4,19.1 Z M80,452.6 L80,385.9 L111.4,386.4 L111.4,452.6 L80,452.6 Z M113.4,451.2 L113.4,390 C115.8,390.7 121,391.8 130.1,391.8 C130.6,391.8 131.2,391.8 131.7,391.8 L131.7,451.3 L113.4,451.3 L113.4,451.2 Z M137.7,449 L133.7,449 L133.7,66.4 L137.7,67.3 L137.7,449 Z" id="Shape"></path>
                    <polygon id="Path" points="0.9 37.9 0.9 39.9 16.5 40.4 16.5 65.9 0.9 65.9 0.9 67.9 16.5 67.9 16.5 90.7 1 90.7 1 92.7 18.5 92.7 18.5 21.6 1.1 20.5 1 22.5 16.5 23.5 16.5 38.4"></polygon>
                    <polygon id="Path" points="18.5 102.3 1.1 101.2 1 103.2 16.5 104.2 16.5 134.2 0.9 134.2 0.9 136.2 16.5 136.2 16.5 159 1 159 1 161 18.5 161"></polygon>
                    <polygon id="Path" points="18.5 172.5 1.1 171.4 1 173.4 16.5 174.4 16.5 204.3 0.9 204.3 0.9 206.3 16.5 206.3 16.5 229.2 1 229.2 1 231.2 18.5 231.2"></polygon>
                    <polygon id="Path" points="18.5 242.7 1.1 241.6 1 243.6 16.5 244.6 16.5 274.5 0.9 274.5 0.9 276.5 16.5 276.5 16.5 299.4 1 299.4 1 301.4 18.5 301.4"></polygon>
                    <polygon id="Path" points="1 369.7 1 371.7 18.5 371.7 18.5 313 1.1 312 1 313.9 16.5 314.9 16.5 344.9 0.9 344.9 0.9 346.9 16.5 346.9 16.5 369.7"></polygon>
                    <polygon id="Path" points="16.5 440.2 1 440.2 1 442.2 18.5 442.2 18.5 383.5 1 383.5 1 385.5 16.5 385.5 16.5 415.4 0.9 415.4 0.9 417.4 16.5 417.4"></polygon>
                </g>
            </g>
            <g id="Bud_x5F_A" transform="translate(0.000000, 101.000000)">
                <g id="Group">
                    <path d="M675.2,123.6 C655.4,121 629,114 616.2,95 C610.7,86.8 609.6,79.2 609.4,75.5 L609.4,73.2 L609.5,72.4 L608.7,72.2 C531.7,54.1 454.3,2.4 453.5,1.9 L453.3,1.7 L229.3,0.2 L0.5,12.1 L0.5,612.8 L0.5,612.8 C0.5,613 0.5,613.2 0.5,613.4 L0.1,629.5 L228.2,629.5 L384.7,629.5 L676,629.5 L676,123.7 L675.2,123.6 Z M515.2,556.1 L519.8,556.4 L519.8,627.6 L515.2,627.6 L515.2,556.1 Z M513.2,627.6 L499.7,627.6 L499.7,555.1 L513.2,556 L513.2,627.6 Z M497.7,553 L497.7,627.7 L497,627.7 L497,544.7 L524.8,546.7 L524.8,627.7 L521.8,627.7 L521.8,554.6 L497.7,553 Z M458.5,627.6 L434.4,627.6 L434.4,548.1 L458.5,550.1 L458.5,627.6 Z M432.3,545.9 L432.3,627.6 L426.4,627.6 L426.4,537.1 L468.3,541.8 L468.3,627.6 L460.4,627.6 L460.4,548.3 L432.3,545.9 Z M424.4,534.9 L424.4,535 L384.6,535 L228.1,535 L226.5,535 L226.5,516.6 L228.1,516.6 L384.6,516.6 L451.9,516.6 L451.9,535 L425.4,535 L424.4,534.9 Z M382.6,544.7 L290.2,544.7 L290.2,537 L382.6,537 L382.6,544.7 Z M230.1,537 L258.6,537 L258.6,544.7 L230.1,544.7 L230.1,537 Z M260.5,537 L288.2,537 L288.2,627.6 L260.5,627.6 L260.5,537 Z M290.2,546.7 L317,546.7 L317,627.6 L290.2,627.6 L290.2,546.7 Z M452.6,28.3 C456.8,31.6 508.2,70.4 607.4,94.8 L607.4,106.1 C607.4,110.5 608.9,114.8 611.8,118 C618,125.1 631.9,134.4 663.6,140.7 L639.7,140.7 L491.8,79 L491.6,78.9 L471.2,78.9 L471.2,62.4 L428.4,28.4 L452.6,28.4 L452.6,28.3 Z M634.9,367.3 L634.9,321.7 L609.4,314 L609.4,305.7 L638.3,316.4 L638.3,368.1 C637.1,367.8 636,367.6 634.9,367.3 Z M634.9,449.7 L634.9,403.4 L609.4,398.8 L609.4,386.9 L638.3,393.2 L638.3,450.2 C637.1,450.1 636,449.9 634.9,449.7 Z M634.9,533.1 L634.9,479.7 L609.4,477.2 L609.4,469 L638.3,473 L638.3,533.4 C637.1,533.3 636,533.2 634.9,533.1 Z M226.4,120.7 L228,120.7 L384.5,120.7 L451.8,120.7 L451.8,140.5 L226.4,140.5 L226.4,120.7 Z M290.2,53.3 L317,53.3 L317,118.7 L290.2,118.7 L290.2,53.3 Z M319,53.3 L382.6,53.3 L382.6,118.7 L319,118.7 L319,53.3 Z M382.6,51.3 L290.2,51.3 L290.2,37.8 L382.6,37.8 L382.6,51.3 Z M288.2,118.7 L260.5,118.7 L260.5,37.8 L288.2,37.8 L288.2,118.7 Z M258.5,51.3 L230,51.3 L230,37.8 L258.5,37.8 L258.5,51.3 Z M230.1,53.3 L258.6,53.3 L258.6,118.7 L230.1,118.7 L230.1,53.3 Z M471.1,80.8 L490.3,80.8 L490.3,135.8 C483,132.7 476.5,129.8 471.1,127.3 L471.1,80.8 Z M529.5,151.5 C529.1,151.4 528.7,151.2 528.3,151.1 L528.3,121.9 L537.9,125.7 L537.9,154.6 C535.1,153.5 532.3,152.5 529.5,151.5 Z M537.9,123.5 L499.7,108.3 L499.7,94.4 L537.9,109.6 L537.9,123.5 Z M499.7,110.4 L526.3,121 L526.3,150.3 C516.9,146.8 508,143.3 499.7,139.8 L499.7,110.4 Z M528.8,153.4 C566.7,167.2 601.8,176 607.4,177.3 L607.4,194 C552.1,181.2 513.3,167.5 490.4,158.2 C468.2,149.1 456.3,142.4 453.9,141 L453.9,121.4 C460.9,124.8 492.3,140 528.8,153.4 Z M568.8,164.5 L568.8,136.6 L579.3,140.8 L579.3,167.6 C576,166.7 572.5,165.7 568.8,164.5 Z M579.3,138.7 L548.8,126.5 L548.8,114.3 L579.3,126.5 L579.3,138.7 Z M548.8,128.7 L566.8,135.9 L566.8,164 C561.1,162.3 555.1,160.4 548.8,158.3 L548.8,128.7 Z M632.9,285.1 C613.6,278.4 609.9,273.1 609.4,272.2 L609.4,234.1 L632.9,241.2 L632.9,285.1 Z M498.1,519.7 L498.1,464.5 L513.4,466.6 L513.4,521 C508,520.6 502.9,520.1 498.1,519.7 Z M515.4,466.8 L519.8,467.4 L519.8,521.5 C518.3,521.4 516.8,521.3 515.4,521.1 L515.4,466.8 Z M496.1,462.1 L496.1,519.5 C494.8,519.4 493.6,519.3 492.3,519.1 L492.3,452.5 L524.8,457.7 L524.8,522 C523.8,521.9 522.8,521.8 521.8,521.8 L521.8,465.8 L496.1,462.1 Z M290.2,350.4 L317,350.4 L317,415.8 L290.2,415.8 L290.2,350.4 Z M382.6,350.4 L382.6,415.8 L319,415.8 L319,350.4 L382.6,350.4 Z M382.6,348.4 L290.2,348.4 L290.2,340.7 L382.6,340.7 L382.6,348.4 Z M288.2,415.8 L260.5,415.8 L260.5,340.7 L288.2,340.7 L288.2,415.8 Z M230.1,350.4 L258.6,350.4 L258.6,415.8 L230.1,415.8 L230.1,350.4 Z M258.5,348.4 L230,348.4 L230,340.7 L258.5,340.7 L258.5,348.4 Z M384.6,340.7 L424.5,340.7 L424.5,415.8 L384.6,415.8 L384.6,340.7 Z M258.5,249.3 L230,249.3 L230,241.6 L258.5,241.6 L258.5,249.3 Z M230.1,251.3 L258.6,251.3 L258.6,316.7 L230.1,316.7 L230.1,251.3 Z M260.5,241.6 L288.2,241.6 L288.2,316.7 L260.5,316.7 L260.5,241.6 Z M382.6,249.3 L290.2,249.3 L290.2,241.6 L382.6,241.6 L382.6,249.3 Z M290.2,251.3 L317,251.3 L317,316.7 L290.2,316.7 L290.2,251.3 Z M319,251.3 L382.6,251.3 L382.6,316.7 L319,316.7 L319,251.3 Z M384.6,241.6 L424.5,241.6 L424.5,316.7 L384.6,316.7 L384.6,241.6 Z M290.2,148.9 L290.2,142.7 L382.6,142.7 L382.6,148.9 L290.2,148.9 Z M258.5,148.9 L230,148.9 L230,142.7 L258.5,142.7 L258.5,148.9 Z M230.1,150.9 L258.6,150.9 L258.6,216.3 L230.1,216.3 L230.1,150.9 Z M260.5,142.6 L288.2,142.6 L288.2,216.2 L260.5,216.2 L260.5,142.6 Z M290.2,150.9 L317,150.9 L317,216.3 L290.2,216.3 L290.2,150.9 Z M319,150.9 L382.6,150.9 L382.6,216.3 L319,216.3 L319,150.9 Z M384.6,142.6 L424.5,142.6 L424.5,216.3 L384.6,216.3 L384.6,142.6 Z M463.9,82.2 L435,60.2 L435,47 L463.9,70.3 L463.9,82.2 Z M435,62.7 L463.9,84.7 L463.9,123.9 C457.3,120.8 453.5,118.9 453.4,118.8 L453.2,118.7 L435,118.7 L435,62.7 Z M452.6,142.6 C454.4,143.7 466.4,150.6 489.6,160.1 C511.6,169.1 548.2,182.1 600,194.4 L526,194.4 L492.4,182.4 L492.4,182 L471.2,182.9 L471.2,170.2 L428.8,142.6 L452.6,142.6 L452.6,142.6 Z M499.7,329.4 L499.7,287.9 L513.4,291.3 L513.4,333 C508.6,331.7 504,330.5 499.7,329.4 Z M515.4,291.7 L519.8,292.8 L519.8,334.5 C518.3,334.1 516.8,333.7 515.4,333.4 L515.4,291.7 Z M497.7,285.3 L497.7,328.9 C495.9,328.4 494.1,328 492.4,327.5 L492.4,274.4 L524.9,283.7 L524.9,335.8 C523.9,335.5 522.9,335.3 521.9,335 L521.9,291.2 L497.7,285.3 Z M471.1,275 L490.3,274.1 L490.3,326.9 C483,325 476.5,323.2 471.1,321.7 L471.1,275 Z M526.8,283.9 L607.4,283.9 L607.4,349.9 C601.3,349.5 569.7,347 529.4,336.9 C528.5,336.7 527.7,336.5 526.8,336.3 L526.8,283.9 Z M453.9,218.8 C460.7,221.8 491.8,235.2 528.8,246.8 C567.3,258.9 601.6,263.6 607.4,264.4 L607.4,281.7 C497,262.2 458.5,242.5 453.9,240 L453.9,218.8 Z M463.9,192.3 L435,173.1 L435,159.7 L463.9,180.2 L463.9,192.3 Z M471.1,184.9 L490.3,184.1 L490.3,231.4 C483,228.7 476.5,226.1 471.1,223.9 L471.1,184.9 Z M492.3,184.5 L524.8,196.1 L524.8,243.5 C523.8,243.2 522.8,242.9 521.8,242.5 L521.8,204 L495.6,193.9 L495.6,233.3 C494.5,232.9 493.4,232.5 492.3,232.1 L492.3,184.5 Z M497.6,234.1 L497.6,196.8 L513.4,202.9 L513.4,239.7 C507.9,237.8 502.6,235.9 497.6,234.1 Z M515.4,203.6 L519.8,205.3 L519.8,241.8 C518.3,241.3 516.8,240.8 515.4,240.3 L515.4,203.6 Z M529.4,244.9 C528.5,244.6 527.7,244.3 526.8,244.1 L526.8,196.4 L607.4,196.4 L607.4,262.4 C601,261.5 567.2,256.8 529.4,244.9 Z M426.5,143.5 L469.1,171.3 L469.1,223.1 C468,222.6 466.9,222.2 465.9,221.8 L465.9,179.3 L433,155.9 L433,216.3 L426.5,216.3 L426.5,143.5 Z M435,175.5 L463.9,194.7 L463.9,220.8 C457.3,218 453.4,216.3 453.3,216.3 L453.1,216.2 L435,216.2 L435,175.5 Z M452.6,241.6 C454.2,242.5 463.4,247.5 485.2,254.8 C505.7,261.6 541.4,271.7 597.3,282 L525.8,282 L492.2,272.4 L492.2,272 L471,273 L471,261.1 L429,241.6 L452.6,241.6 Z M426.5,242.6 L469.1,262.4 L469.1,321.2 C467.3,320.7 465.7,320.3 464.2,319.8 L464.2,268.8 L431.7,253.4 L431.7,316.6 L426.5,316.6 L426.5,242.6 Z M433.7,256.6 L462.2,270.1 L462.2,319.3 C456.5,317.7 453.3,316.8 453.2,316.7 L453.1,316.7 L433.8,316.7 L433.8,256.6 L433.7,256.6 Z M452.7,340.7 C463.9,345.3 507.1,356.9 593.4,369.7 L525.9,368.8 L491.5,361.4 L491.4,361.4 L471.1,362.5 L471.1,359.8 L429.9,340.7 L452.7,340.7 Z M521.8,428.5 L521.8,377.4 L497.6,372.7 L497.6,424.5 C495.8,424.2 494,423.9 492.3,423.6 L492.3,363.7 L524.8,370.7 L524.8,429 C523.8,428.8 522.8,428.7 521.8,428.5 Z M499.7,424.8 L499.7,375.1 L513.4,377.8 L513.4,427.1 C508.6,426.4 504,425.6 499.7,424.8 Z M515.4,378.2 L519.8,379.1 L519.8,428.2 C518.3,428 516.8,427.7 515.4,427.5 L515.4,378.2 Z M471.1,364.6 L490.3,363.5 L490.3,423.2 C483,421.9 476.5,420.6 471.1,419.6 L471.1,364.6 Z M426.5,341.3 L469.1,361.1 L469.1,419.2 C467.3,418.9 465.7,418.5 464.2,418.2 L464.2,367.6 L431.7,352.2 L431.7,415.8 L426.5,415.8 L426.5,341.3 Z M433.7,355.4 L462.2,368.9 L462.2,417.9 C456.5,416.7 453.2,416 453.1,416 L453,416 L433.7,416 L433.7,355.4 Z M452.8,439.5 C454.8,439.9 485.1,445.8 587.8,455.9 L525.9,455.9 L492.4,450.5 L492.4,450.3 L471.2,451.7 L471.2,446.9 L435.4,439.5 L452.8,439.5 Z M471.1,453.7 L490.3,452.5 L490.3,519 C482.9,518.3 476.5,517.6 471.1,516.9 L471.1,453.7 Z M526.8,457.9 L607.4,457.9 L607.4,526.7 C602,526.6 574.4,525.9 529.2,522.4 C528.4,522.3 527.6,522.3 526.8,522.2 L526.8,457.9 Z M453.9,437.7 L453.9,418.1 C460.2,419.5 490.3,425.8 529,431.7 C572.5,438.3 601.9,440.2 607.4,440.5 L607.4,455.8 C496,445.2 459.5,438.8 453.9,437.7 Z M529.3,429.7 C528.5,429.6 527.7,429.4 526.8,429.3 L526.8,370.9 L607.4,371.9 L607.4,438.4 C601.7,438.1 572.4,436.2 529.3,429.7 Z M453.9,339 L453.9,319 C460.4,320.8 491,329.5 528.9,338.9 C569.6,349 601.6,351.5 607.4,351.9 L607.4,369.7 C513.3,356.4 466.4,344 453.9,339 Z M469.1,126.4 C468,125.9 466.9,125.4 465.9,124.9 L465.9,69.3 L433,42.8 L433,118.7 L426.5,118.7 L426.5,29.4 L469.1,63.3 L469.1,126.4 Z M226.4,142.6 L228,142.6 L228,216.3 L226.4,216.3 L226.4,142.6 Z M226.4,218.3 L228,218.3 L384.5,218.3 L451.8,218.3 L451.8,239.6 L424.6,239.6 L424.4,239.5 L424.4,239.6 L384.5,239.6 L228.1,239.6 L226.5,239.6 L226.5,218.3 L226.4,218.3 Z M226.4,241.6 L228,241.6 L228,316.7 L226.4,316.7 L226.4,241.6 Z M226.4,318.7 L228,318.7 L384.5,318.7 L451.8,318.7 L451.8,338.8 L425.5,338.8 L424.4,338.3 L424.4,338.8 L384.5,338.8 L228.1,338.8 L226.5,338.8 L226.5,318.7 L226.4,318.7 Z M226.4,340.7 L228,340.7 L228,415.8 L226.4,415.8 L226.4,340.7 Z M226.4,417.8 L451.9,417.8 L451.9,437.5 L425.6,437.5 L424.5,437.3 L424.5,437.5 L384.6,437.5 L228.1,437.5 L226.5,437.5 L226.5,417.8 L226.4,417.8 Z M382.6,447.2 L290.2,447.2 L290.2,439.5 L382.6,439.5 L382.6,447.2 Z M258.5,447.2 L230,447.2 L230,439.5 L258.5,439.5 L258.5,447.2 Z M226.4,439.5 L228,439.5 L228,514.6 L226.4,514.6 L226.4,439.5 Z M230.1,449.2 L258.6,449.2 L258.6,514.6 L230.1,514.6 L230.1,449.2 Z M260.5,439.5 L288.2,439.5 L288.2,514.6 L260.5,514.6 L260.5,439.5 Z M290.2,449.2 L317,449.2 L317,514.6 L290.2,514.6 L290.2,449.2 Z M319,449.2 L382.6,449.2 L382.6,514.6 L319,514.6 L319,449.2 Z M384.6,439.5 L424.5,439.5 L424.5,514.6 L384.6,514.6 L384.6,439.5 Z M426.5,439.7 L469.1,448.5 L469.1,516.6 C467.3,516.4 465.7,516.2 464.2,516 L464.2,456 L431.7,448.9 L431.7,514.5 L426.5,514.5 L426.5,439.7 Z M433.7,451.5 L462.2,457.7 L462.2,515.8 C456.4,515.1 453.1,514.6 453,514.6 L452.9,514.6 L433.6,514.6 L433.6,451.5 L433.7,451.5 Z M453.9,516.8 C459.8,517.6 488.7,521.3 529,524.4 C574.4,527.9 602,528.6 607.4,528.7 L607.4,542.6 C495.6,542.6 459.4,536.3 453.9,535.2 L453.9,516.8 Z M609.4,479.2 L632.9,481.5 L632.9,532.9 C615.5,531.4 610.6,529.6 609.4,529.1 L609.4,479.2 Z M639.4,471.1 L609.4,467 L609.4,463.9 C613,465.3 623.8,468 655.7,470.7 L639.4,471.1 Z M609.4,400.9 L632.9,405.1 L632.9,449.4 C614.8,446.5 610.3,443.5 609.4,442.7 L609.4,400.9 Z M639.5,391.5 L609.4,384.9 L609.4,380.6 C613.2,383.1 624.2,387.3 656.1,391.9 L639.5,391.5 Z M609.4,316 L632.9,323.1 L632.9,366.7 C613.3,361.6 609.9,358 609.4,357.3 L609.4,316 Z M639.5,314.7 L609.4,303.5 L609.4,296 C613.6,299.4 626.5,306 666.3,312.9 L639.5,314.7 Z M619.5,299.2 C611.7,296 609.7,293.7 609.4,293.2 L609.4,275.4 C610.9,276.8 613.4,278.8 617.8,281.1 C629.3,287.1 648.8,292.7 674,297.5 L674,312.3 C649.4,308.3 631.1,303.9 619.5,299.2 Z M634.9,285.8 L634.9,239.8 L609.4,232.1 L609.4,223.8 L638.3,234.5 L638.3,286.8 C637.1,286.5 636,286.2 634.9,285.8 Z M639.5,232.9 L609.4,221.7 L609.4,210.7 C613.3,215.9 625,225.1 659.6,232.1 L639.5,232.9 Z M609.4,206.6 L609.4,191 C613.9,197.1 628.4,209.4 674,218 L674,232.6 C614.6,223.4 609.7,207.6 609.4,206.6 Z M609.4,187 L609.4,175.7 L608.6,175.5 C608.5,175.5 606.2,174.9 602.1,173.9 L602.1,135.2 L638.3,150.9 L638.3,206.6 C613.5,197.3 609.7,188 609.4,187 Z M600.1,132.2 L600.1,173.4 C595.4,172.2 589,170.4 581.3,168.3 L581.3,125.2 L546.8,111.4 L546.8,157.6 C544.5,156.8 542.2,156 539.9,155.2 L539.9,108.3 L497.7,91.5 L497.7,139 C495.9,138.2 494.1,137.5 492.4,136.7 L492.4,81.3 L638.4,142.2 L638.4,148.6 L600.1,132.2 Z M424.5,118.7 L384.6,118.7 L384.6,35.8 L228.1,35.8 L228.1,118.7 L226.5,118.7 L226.5,28.3 L424.6,28.3 L424.6,118.7 L424.5,118.7 Z M452.8,537 C461.5,539.1 492.4,542.6 553.4,544 L525.9,544.7 L497,542.7 L497,542.6 L470.4,542.6 L470.4,540 L443.4,537 L452.8,537 Z M470.3,544.6 L495,544.6 L495,627.6 L470.4,627.6 L470.4,544.6 L470.3,544.6 Z M526.8,546.7 L607.4,544.6 L607.4,627.6 L526.8,627.6 L526.8,546.7 Z M609.4,561 L632.9,561 L632.9,627.6 L609.4,627.6 L609.4,561 Z M609.4,559 L609.4,548.4 C612.1,549.1 619.4,550.2 638.3,551.2 L638.3,627.6 L634.8,627.6 L634.8,559 L609.4,559 Z M609.4,546.3 L609.4,531.1 C613.6,532.6 627.7,535.7 674,536.9 L674,550.3 C622.7,549.3 611.6,547 609.4,546.3 Z M640.3,533.5 L640.3,473.1 L674,472.1 L674,535.1 C660,534.6 649,534.1 640.3,533.5 Z M609.4,461.6 L609.4,445.1 C613.8,447.6 628.1,452.6 674,455.7 L674,469.9 C622.1,466.5 611.3,462.6 609.4,461.6 Z M640.3,450.5 L640.3,393.5 L674,394.2 L674,453.7 C660,452.8 649,451.6 640.3,450.5 Z M609.4,378 L609.4,360 C610.8,361 613.2,362.3 617.2,363.9 C628.4,368.3 648.1,372.8 674,377.1 L674,392.1 C617.3,385.5 610.2,379 609.4,378 Z M640.3,368.6 L640.3,316.7 L674,314.5 L674,375.1 C660,372.8 649,370.6 640.3,368.6 Z M640.3,287.5 L640.3,234.8 L668.5,233.8 C670.3,234.1 672.1,234.4 674,234.7 L674,295.4 C660,292.8 649,290.1 640.3,287.5 Z M640.3,207.3 L640.3,150.2 L640.3,149.5 L640.3,142.6 L674,142.6 L674,216 C660,213.4 649,210.3 640.3,207.3 Z M614.5,96.1 C627.5,115.4 653.9,122.8 674.1,125.5 L674.1,140.5 C635.8,134.4 619.9,124.2 613.3,116.7 C610.8,113.8 609.4,110.1 609.4,106.1 L609.4,85.9 C610.5,89 612.1,92.5 614.5,96.1 Z M607.4,75.9 L607.4,92.7 C509.6,68.6 458.7,30.5 453.9,26.8 L453.9,4.6 C465.2,12 536.3,57.1 607.4,74 C607.4,74.5 607.4,75.2 607.4,75.9 Z M229.3,2.3 L452,3.8 L452,26.3 L425.9,26.3 L424.6,25.2 L424.6,26.3 L226.4,26.3 L226.4,2.4 L229.3,2.3 Z M2.1,612.9 L2.4,612.9 L2.4,14.1 L224.4,2.5 L224.4,627.6 L2,627.6 C2.1,621.6 2.3,613.3 2.4,612.9 L2.1,612.9 Z M226.4,627.6 L226.4,537 L228,537 L228,627.6 L226.4,627.6 Z M230.1,546.7 L258.6,546.7 L258.6,627.6 L230.1,627.6 L230.1,546.7 Z M319,627.6 L319,546.7 L382.6,546.7 L382.6,627.6 L319,627.6 Z M384.6,537 L424.4,537 L424.4,627.6 L384.6,627.6 L384.6,537 Z M640.3,627.6 L640.3,551.3 C649,551.7 660,552.1 674,552.4 L674,627.6 L640.3,627.6 Z" id="Shape"></path>
                    <path d="M182.8,26.3 L36,33.3 L36,132.2 L182.8,127.2 L182.8,26.3 Z M120.2,31.3 L135.2,30.6 L135.2,126.8 L120.2,127.3 L120.2,31.3 Z M118.2,127.3 L47.1,129.7 L47.1,34.7 L118.2,31.3 L118.2,127.3 L118.2,127.3 Z M38,35.2 L45,34.9 L45,129.9 L38,130.1 L38,35.2 Z M180.8,125.2 L137.2,126.7 L137.2,30.5 L180.8,28.4 L180.8,125.2 Z" id="Shape"></path>
                    <path d="M182.8,139.7 L36,146.7 L36,230.2 L182.8,225.2 L182.8,139.7 Z M120.2,144.6 L135.2,143.9 L135.2,224.7 L120.2,225.2 L120.2,144.6 Z M118.2,225.4 L47.1,227.8 L47.1,148.1 L118.2,144.7 L118.2,225.4 L118.2,225.4 Z M38,148.6 L45,148.3 L45,228 L38,228.2 L38,148.6 Z M180.8,223.2 L137.2,224.7 L137.2,143.8 L180.8,141.7 L180.8,223.2 Z" id="Shape"></path>
                    <path d="M182.8,237.7 L36,244.7 L36,328.2 L182.8,323.2 L182.8,237.7 Z M120.2,242.7 L135.2,242 L135.2,322.8 L120.2,323.3 L120.2,242.7 Z M118.2,323.4 L47.1,325.8 L47.1,246.1 L118.2,242.7 L118.2,323.4 L118.2,323.4 Z M38,246.6 L45,246.3 L45,326 L38,326.2 L38,246.6 Z M180.8,321.2 L137.2,322.7 L137.2,241.8 L180.8,239.7 L180.8,321.2 Z" id="Shape"></path>
                    <path d="M182.8,335.7 L36,342.7 L36,426.2 L182.8,421.2 L182.8,335.7 Z M120.2,340.7 L135.2,340 L135.2,420.8 L120.2,421.3 L120.2,340.7 Z M118.2,421.4 L47.1,423.8 L47.1,344.1 L118.2,340.7 L118.2,421.4 L118.2,421.4 Z M38,344.6 L45,344.3 L45,424 L38,424.2 L38,344.6 Z M180.8,419.2 L137.2,420.7 L137.2,339.8 L180.8,337.7 L180.8,419.2 Z" id="Shape"></path>
                    <path d="M182.8,433.7 L45.4,440.2 L36,440.6 L36,524.1 L182.8,519.1 L182.8,433.7 Z M120.2,438.7 L135.2,438 L135.2,518.8 L120.2,519.3 L120.2,438.7 Z M118.2,519.4 L47.1,521.8 L47.1,442.1 L118.2,438.7 L118.2,519.4 L118.2,519.4 Z M38,442.6 L45,442.3 L45,522 L38,522.2 L38,442.6 Z M180.8,517.2 L137.2,518.7 L137.2,437.8 L180.8,435.7 L180.8,517.2 Z" id="Shape"></path>
                    <path d="M182.8,534.2 L45.4,538.3 L36,538.7 L36,622.2 L182.8,622.9 L182.8,534.2 Z M47,540.2 L118.1,538.1 L118.1,620.6 L47,620.3 L47,540.2 Z M120.2,538 L135.2,537.6 L135.2,620.7 L120.2,620.6 L120.2,538 Z M38,540.6 L45,540.3 L45,620.3 L38,620.3 L38,540.6 Z M180.8,620.9 L137.2,620.7 L137.2,537.6 L180.8,536.3 L180.8,620.9 Z" id="Shape"></path>
                </g>
            </g>
            <path d="M323.45,61 L327.351,48.384 L348.765,48.384 L352.749,61 L365.282,61 L344.366,1.655 L331.916,1.655 L311.249,61 L323.45,61 Z M345.86,39.171 L330.173,39.171 L335.485,22.073 C335.761668,21.2983325 336.0245,20.3853325 336.2735,19.334 C336.5225,18.282665 336.785332,17.286665 337.062,16.346 C337.338668,15.239335 337.643,14.105 337.975,12.943 L338.141,12.943 C338.417668,14.105 338.694332,15.239335 338.971,16.346 C339.247668,17.286665 339.5105,18.282665 339.7595,19.334 C340.0085,20.3853325 340.271332,21.2983325 340.548,22.073 L345.86,39.171 Z" id="A"></path>
            <path d="M748.789,217 C751.943,217 754.792668,216.585 757.338,215.755 C759.883335,214.925 762.013665,213.763 763.729,212.269 C765.499478,210.775 766.813643,209.045832 767.6715,207.0815 C768.529165,205.117166 768.958,202.724 768.958,199.902 C768.958,196.25 767.948165,193.123668 765.9285,190.523 C763.908835,187.922332 761.239,186.151668 757.919,185.211 L757.919,184.962 C760.741,184.021332 762.995835,182.568832 764.6835,180.6045 C766.371165,178.640203 767.215,176.13637 767.215,173.093 C767.215,168.500335 765.638,164.793 762.484,161.971 C760.934665,160.587665 758.956497,159.5225 756.5495,158.7755 C754.1425,158.0285 751.334332,157.655 748.125,157.655 L721.565,157.655 L721.565,217 L748.789,217 Z M746.631,181.559 L733.6,181.559 L733.6,167.449 L746.88,167.449 C749.536,167.449 751.624832,168.057665 753.1465,169.275 C754.668168,170.492158 755.429,172.207493 755.429,174.421 C755.429,176.745 754.626668,178.515668 753.022,179.733 C751.417332,180.950332 749.287,181.559 746.631,181.559 Z M747.461,207.04 L733.6,207.04 L733.6,190.44 L747.129,190.44 C749.895668,190.44 752.192,191.159332 754.018,192.598 C755.844,194.036668 756.757,196.167001 756.757,198.989 C756.757,201.423666 755.940832,203.374166 754.3085,204.8405 C752.676168,206.306824 750.393668,207.04 747.461,207.04 Z" id="B"></path>
            <path d="M1221.544,62.245 C1225.694,62.245 1229.2215,61.6778338 1232.1265,60.5435 C1235.0315,59.4091662 1237.50766,57.8736675 1239.555,55.937 C1241.547,54.0556675 1243.09634,51.9115 1244.203,49.5045 C1245.30966,47.0975 1245.946,44.566 1246.112,41.91 L1234.326,41.91 C1233.93866,45.064 1232.59683,47.5955 1230.3005,49.5045 C1228.00417,51.4135 1225.08533,52.368 1221.544,52.368 C1219.054,52.368 1216.79917,51.8561675 1214.7795,50.8325 C1212.75985,49.8088388 1211.04452,48.3701726 1209.6335,46.5165 C1208.2225,44.6628338 1207.1435,42.4633338 1206.3965,39.918 C1205.6495,37.3726903 1205.276,34.5783578 1205.276,31.535 C1205.276,28.6023325 1205.608,25.8633325 1206.272,23.318 C1206.936,20.7727055 1207.932,18.559373 1209.26,16.678 C1210.588,14.796665 1212.26183,13.3165 1214.2815,12.2375 C1216.30117,11.1585 1218.69433,10.619 1221.461,10.619 C1224.947,10.619 1227.769,11.518165 1229.927,13.3165 C1232.085,15.114835 1233.44067,17.508 1233.994,20.496 L1245.946,20.496 C1245.614,17.674 1244.83934,15.045665 1243.622,12.611 C1242.40466,10.176335 1240.7585,8.05983502 1238.6835,6.2615 C1236.6085,4.46316498 1234.13234,3.05216498 1231.255,2.0285 C1228.37767,1.00483502 1225.113,0.493 1221.461,0.493 C1217.08967,0.493 1213.14717,1.2815 1209.6335,2.8585 C1206.11983,4.4355 1203.13183,6.62116498 1200.6695,9.4155 C1198.20717,12.2097438 1196.312,15.5020789 1194.984,19.2925 C1193.656,23.0828325 1192.992,27.1636675 1192.992,31.535 C1192.992,36.017 1193.6975,40.1255 1195.1085,43.8605 C1196.5195,47.5955 1198.48383,50.8325 1201.0015,53.5715 C1203.51916,56.3105 1206.53483,58.4408338 1210.0485,59.9625 C1213.56217,61.4841662 1217.394,62.245 1221.544,62.245 Z" id="C"></path>
            <path d="M1745.726,165 C1749.48867,165 1752.80867,164.502 1755.686,163.506 C1758.56329,162.51 1761.10863,161.099 1763.322,159.273 C1766.476,156.617003 1768.8415,153.283169 1770.4185,149.2715 C1771.9955,145.259835 1772.784,140.819335 1772.784,135.95 C1772.784,131.5787 1772.17534,127.539368 1770.958,123.832 C1769.74066,120.124665 1767.99766,116.929165 1765.729,114.2455 C1763.46034,111.561936 1760.72133,109.459271 1757.512,107.9375 C1754.30267,106.415835 1750.706,105.655 1746.722,105.655 L1723.565,105.655 L1723.565,165 L1745.726,165 Z M1744.896,154.625 L1735.6,154.625 L1735.6,115.947 L1745.228,115.947 C1747.77333,115.947 1750.0005,116.431165 1751.9095,117.3995 C1753.8185,118.367835 1755.42317,119.737335 1756.7235,121.508 C1758.02368,123.278668 1758.99202,125.395168 1759.6285,127.8575 C1760.26483,130.319832 1760.583,133.017332 1760.583,135.95 C1760.583,141.870668 1759.3795,146.463334 1756.9725,149.728 C1754.5655,152.992666 1750.54,154.625 1744.896,154.625 Z" id="D"></path>
            <polygon id="E" points="2089.472 165 2089.472 154.957 2057.6 154.957 2057.6 138.938 2085.322 138.938 2085.322 129.061 2057.6 129.061 2057.6 115.781 2089.223 115.781 2089.223 105.655 2045.565 105.655 2045.565 165"></polygon>
            <polygon id="F" points="2545.6 61 2545.6 36.432 2571.413 36.432 2571.413 26.14 2545.6 26.14 2545.6 11.864 2576.061 11.864 2576.061 1.655 2533.565 1.655 2533.565 61"></polygon>
        </g>
</svg>